<?xml version="1.0" encoding="utf-8"?>
<svg id="master-artboard" viewBox="0 0 1400 980" version="1.1" xmlns="http://www.w3.org/2000/svg" x="0px" y="0px" style="enable-background:new 0 0 1400 980;" width="1400px" height="980px"><g transform="matrix(1.0515021459227467, 0, 0, 1.0515021459227467, 209.99993582694793, -0.0000031378955895888794)"><metadata>
Created by potrace 1.16, written by Peter Selinger 2001-2019
</metadata><g transform="translate(0.000000,932.000000) scale(0.100000,-0.100000)" fill="#000000" stroke="none">
<path d="M4420 9314 c-137 -8 -391 -37 -530 -59 -1865 -307 -3372 -1737 -3779&#10;-3585 -77 -350 -105 -618 -105 -1010 0 -392 28 -660 105 -1010 388 -1761 1778&#10;-3151 3539 -3539 350 -77 618 -105 1010 -105 392 0 660 28 1010 105 1761 388&#10;3151 1778 3539 3539 77 350 105 618 105 1010 0 317 -12 470 -55 745 -265 1678&#10;-1457 3099 -3066 3655 -353 122 -678 194 -1063 235 -141 15 -579 27 -710 19z&#10;m1748 -1086 c7 -7 12 -28 12 -47 0 -19 7 -43 17 -53 22 -24 75 -23 98 2 24 26&#10;72 27 80 0 7 -21 -5 -49 -29 -70 -22 -18 -20 -63 4 -85 12 -10 40 -21 63 -24&#10;34 -5 43 -10 45 -29 5 -33 -15 -52 -54 -52 -69 0 -95 -63 -49 -118 28 -33 31&#10;-52 13 -70 -18 -18 -37 -15 -70 13 -55 46 -118 20 -118 -49 0 -39 -19 -59 -52&#10;-54 -19 2 -24 11 -29 45 -10 80 -64 106 -121 58 -33 -28 -48 -31 -66 -13 -18&#10;18 -14 49 9 74 45 48 15 114 -51 114 -45 0 -65 20 -56 55 5 20 13 25 37 25 32&#10;0 69 15 81 34 14 21 8 63 -13 90 -11 14 -19 36 -17 48 4 31 41 35 74 9 30 -24&#10;72 -27 97 -8 10 6 20 30 24 52 3 22 10 46 16 53 12 15 39 16 55 0z m-2804&#10;-100 c9 -12 16 -43 16 -68 0 -54 20 -87 64 -105 42 -18 78 -9 125 31 46 40 83&#10;44 105 12 24 -34 20 -54 -21 -99 -32 -35 -38 -49 -38 -85 0 -64 33 -94 115&#10;-103 84 -10 111 -46 75 -98 -11 -16 -28 -22 -75 -25 -74 -5 -109 -33 -117 -95&#10;-5 -35 -1 -44 36 -87 45 -51 49 -70 25 -104 -22 -32 -60 -28 -110 13 -57 47&#10;-112 49 -155 6 -24 -25 -29 -38 -29 -78 0 -58 -21 -93 -56 -93 -46 0 -64 17&#10;-64 61 0 126 -99 180 -190 104 -44 -37 -75 -44 -102 -22 -31 24 -31 53 0 89&#10;61 70 68 119 24 169 -23 26 -37 32 -91 38 -44 5 -68 13 -77 26 -36 49 1 95 77&#10;95 45 0 55 4 85 34 48 48 46 87 -6 157 -42 56 -44 81 -12 107 27 21 60 14 99&#10;-21 47 -42 77 -50 117 -33 49 21 67 48 73 112 3 36 11 64 21 72 25 20 69 15&#10;86 -10z m1442 -1139 c169 -23 356 -96 510 -199 113 -76 286 -253 367 -375 191&#10;-290 280 -617 264 -975 -17 -375 -95 -555 -580 -1343 -104 -170 -188 -309&#10;-186 -311 2 -1 110 -21 239 -43 l235 -41 930 170 c883 160 933 169 990 159 33&#10;-6 71 -19 85 -30 l25 -18 3 -943 2 -944 -27 -29 c-35 -36 -103 -71 -168 -85&#10;-27 -7 -367 -66 -755 -132 -388 -67 -757 -130 -820 -141 -80 -14 -159 -20&#10;-260 -20 -142 0 -161 3 -1089 165 l-944 165 -901 -165 c-564 -104 -925 -166&#10;-966 -166 -72 0 -114 13 -148 44 l-22 21 0 926 c0 898 1 927 19 958 21 33 82&#10;73 142 92 55 18 1651 290 1768 302 104 11 282 1 376 -21 93 -22 94 -28 -44&#10;198 -447 726 -521 925 -508 1362 4 132 12 213 27 285 72 340 248 646 484 845&#10;202 169 390 254 656 294 55 8 223 5 296 -5z m2606 -529 c22 -17 26 -29 30 -94&#10;8 -118 64 -186 154 -186 58 0 83 11 143 64 61 54 98 60 136 21 41 -40 34 -83&#10;-25 -151 -71 -82 -79 -158 -23 -225 36 -42 80 -59 153 -59 55 0 65 -3 91 -29&#10;36 -36 37 -70 3 -110 -24 -28 -31 -31 -87 -31 -104 -1 -177 -49 -193 -129 -11&#10;-55 5 -99 57 -157 58 -65 66 -108 24 -149 -40 -41 -82 -34 -149 25 -63 56 -88&#10;65 -148 57 -84 -11 -128 -70 -136 -180 -5 -88 -26 -117 -83 -117 -63 0 -81 24&#10;-88 116 -4 51 -13 90 -25 111 -36 59 -123 89 -189 64 -14 -5 -48 -30 -76 -55&#10;-63 -56 -98 -60 -142 -17 -41 41 -38 71 16 131 57 65 67 83 67 135 2 101 -72&#10;165 -189 165 -55 0 -68 4 -88 25 -34 33 -34 87 0 120 20 21 34 25 87 25 134 1&#10;196 64 190 193 -1 18 -18 45 -46 75 -75 82 -83 116 -37 163 44 43 81 39 139&#10;-15 61 -56 81 -66 134 -66 95 0 158 69 158 173 0 58 19 111 42 120 29 12 77 6&#10;100 -13z m-5340 -87 c12 -11 18 -30 18 -58 0 -32 6 -49 26 -69 36 -36 80 -35&#10;124 4 43 36 74 38 95 6 18 -27 12 -48 -24 -80 -28 -26 -35 -69 -17 -104 17&#10;-33 34 -42 76 -42 16 0 40 -4 54 -10 21 -8 26 -16 26 -44 0 -41 -20 -56 -74&#10;-56 -49 0 -65 -8 -82 -42 -18 -35 -11 -78 17 -104 36 -32 42 -53 24 -80 -19&#10;-29 -55 -31 -79 -5 -65 72 -166 38 -166 -55 0 -48 -19 -74 -54 -74 -32 0 -42&#10;16 -49 75 -10 92 -84 123 -151 64 -44 -38 -86 -37 -100 3 -8 23 -5 32 22 63&#10;60 68 31 155 -52 155 -75 0 -109 47 -66 90 14 14 33 20 62 20 88 0 117 80 56&#10;154 -26 32 -30 42 -22 65 14 39 56 40 100 2 67 -59 141 -28 151 64 3 28 10 56&#10;16 63 13 17 47 15 69 -5z m326 -1635 c7 -7 12 -23 12 -37 0 -54 60 -80 95 -41&#10;40 45 92 4 55 -43 -40 -50 -13 -107 51 -107 55 0 47 -56 -9 -66 -21 -4 -43&#10;-11 -49 -17 -20 -15 -15 -55 9 -87 17 -24 19 -32 8 -45 -17 -21 -43 -19 -65 5&#10;-37 41 -95 13 -95 -47 0 -59 -61 -57 -68 3 -4 34 -28 64 -52 64 -10 0 -29 -9&#10;-44 -21 -53 -42 -87 3 -45 60 21 29 21 31 5 55 -11 18 -25 26 -44 26 -32 0&#10;-52 16 -52 42 0 19 5 22 52 32 15 4 35 18 44 32 16 24 16 27 -5 55 -12 16 -21&#10;40 -19 52 4 29 39 33 63 7 36 -40 95 -16 95 39 0 28 16 51 35 51 6 0 16 -5 23&#10;-12z" style="fill: rgb(255, 255, 255);"/>
<path d="M6060 7990 c-11 -11 -20 -26 -20 -33 0 -24 31 -57 55 -57 52 0 74 65&#10;33 94 -30 21 -44 20 -68 -4z" style="fill: rgb(255, 255, 255);"/>
<path d="M6180 7865 c-10 -11 -10 -19 -2 -27 15 -15 44 -2 40 19 -4 23 -22 27&#10;-38 8z" style="fill: rgb(255, 255, 255);"/>
<path d="M3215 7788 c-32 -17 -45 -39 -45 -78 0 -78 96 -115 146 -56 64 73&#10;-17 181 -101 134z" style="fill: rgb(255, 255, 255);"/>
<path d="M3386 7587 c-11 -8 -17 -23 -14 -38 2 -19 10 -25 35 -27 28 -3 33 0&#10;39 24 5 20 2 31 -11 41 -23 16 -27 16 -49 0z" style="fill: rgb(255, 255, 255);"/>
<path d="M4500 6107 c-131 -45 -231 -126 -303 -248 -55 -94 -79 -176 -84 -300&#10;-12 -235 85 -442 258 -558 92 -61 178 -84 298 -79 92 3 105 7 184 46 364 180&#10;440 713 143 1007 -39 39 -94 82 -122 97 -114 61 -259 75 -374 35z" style="fill: rgb(255, 255, 255);"/>
<path d="M2775 3634 c-357 -62 -653 -113 -657 -113 -5 -1 -8 -339 -8 -752 0&#10;-711 1 -751 18 -747 9 3 311 58 670 124 l652 119 0 742 c0 588 -3 743 -12 742&#10;-7 -1 -305 -52 -663 -115z" style="fill: rgb(255, 255, 255);"/>
<path d="M3972 2978 l3 -743 640 -111 c352 -62 655 -114 673 -117 l32 -6 0&#10;742 0 742 -150 26 -150 25 -127 -209 c-145 -236 -165 -257 -249 -257 -87 0&#10;-100 14 -294 330 l-176 284 -69 13 c-39 7 -85 15 -103 18 l-32 6 2 -743z" style="fill: rgb(255, 255, 255);"/>
<path d="M6488 3577 l-658 -122 0 -743 0 -744 28 6 c38 8 1305 226 1315 226 4&#10;0 7 338 7 750 0 708 -1 750 -17 749 -10 -1 -314 -56 -675 -122z" style="fill: rgb(255, 255, 255);"/>
<path d="M7215 5956 c-114 -51 -104 -212 15 -246 105 -30 201 80 154 176 -34&#10;68 -107 99 -169 70z" style="fill: rgb(255, 255, 255);"/>
<path d="M7450 5650 c-11 -11 -20 -29 -20 -40 0 -25 42 -70 65 -70 23 0 65 45&#10;65 70 0 28 -35 60 -65 60 -14 0 -34 -9 -45 -20z" style="fill: rgb(255, 255, 255);"/>
<path d="M1953 6088 c-51 -25 -45 -100 10 -126 77 -37 134 87 57 128 -23 12&#10;-38 12 -67 -2z" style="fill: rgb(255, 255, 255);"/>
<path d="M2092 5918 c-30 -30 9 -69 44 -43 15 11 17 17 8 32 -14 23 -36 27&#10;-52 11z" style="fill: rgb(255, 255, 255);"/>
<path d="M2318 4549 c-21 -12 -24 -49 -6 -67 18 -18 56 -14 68 7 12 24 4 48&#10;-21 61 -21 12 -20 12 -41 -1z" style="fill: rgb(255, 255, 255);"/>
<path d="M2410 4430 c0 -11 7 -20 15 -20 8 0 15 9 15 20 0 11 -7 20 -15 20 -8&#10;0 -15 -9 -15 -20z" style="fill: rgb(255, 255, 255);"/>
</g></g></svg>