<?xml version="1.0" encoding="utf-8"?>
<svg id="master-artboard" viewBox="0 0 1400 980" version="1.1" xmlns="http://www.w3.org/2000/svg" x="0px" y="0px" style="enable-background:new 0 0 1400 980;" width="1400px" height="980px"><g transform="matrix(1.0515021459227467, 0, 0, 1.0515021459227467, 209.99993582694793, 5.684341886080802e-14)"><metadata>
Created by potrace 1.16, written by Peter Selinger 2001-2019
</metadata><g transform="translate(0.000000,932.000000) scale(0.100000,-0.100000)" fill="#000000" stroke="none">
<path d="M4362 9310 c-256 -18 -522 -57 -757 -111 -891 -205 -1732 -690 -2348&#10;-1354 -705 -760 -1116 -1660 -1234 -2700 -25 -226 -25 -744 0 -970 65 -574&#10;214 -1087 458 -1580 597 -1206 1686 -2097 2981 -2439 1087 -287 2278 -167&#10;3271 330 611 307 1165 757 1588 1294 549 695 886 1536 975 2435 22 227 22 660&#10;0 885 -136 1378 -843 2589 -1976 3384 -637 448 -1395 728 -2190 811 -185 19&#10;-596 27 -768 15z m398 -2430 c768 -60 1422 -501 1756 -1185 206 -423 266 -888&#10;173 -1355 -75 -378 -271 -751 -545 -1040 l-86 -89 36 -45 37 -44 102 -11 c56&#10;-7 115 -15 132 -19 24 -6 110 -110 457 -547 471 -594 471 -594 472 -725 1 -84&#10;-19 -148 -66 -218 -35 -51 -119 -116 -177 -137 -93 -33 -226 -9 -298 53 -31&#10;27 -901 1114 -909 1137 -3 7 2 67 10 135 l15 122 -36 44 c-19 24 -38 44 -41&#10;44 -2 0 -33 -18 -67 -39 -90 -57 -266 -143 -378 -185 -395 -148 -850 -171&#10;-1264 -65 -778 199 -1382 830 -1547 1615 -115 551 -7 1129 297 1592 390 594&#10;1037 951 1757 970 25 1 101 -3 170 -8z" style="fill: rgb(255, 255, 255);"/>
<path d="M4435 6480 c-570 -65 -1078 -407 -1348 -910 -64 -118 -113 -245 -148&#10;-378 -267 -1032 423 -2043 1485 -2173 138 -17 391 -7 531 21 815 161 1403 876&#10;1405 1707 1 841 -610 1570 -1436 1713 -136 24 -369 33 -489 20z m-446 -917&#10;c12 -10 28 -42 36 -71 17 -67 37 -97 77 -118 75 -39 149 -12 202 71 40 62 73&#10;77 115 54 14 -8 32 -27 41 -42 14 -26 13 -31 -17 -90 -32 -62 -36 -77 -34&#10;-129 1 -34 46 -87 89 -105 28 -12 46 -12 108 -2 72 13 74 12 99 -11 29 -27 33&#10;-74 10 -107 -9 -12 -35 -26 -63 -33 -68 -16 -111 -45 -128 -85 -31 -76 -7&#10;-144 68 -191 24 -14 49 -33 56 -42 19 -24 15 -79 -8 -102 -28 -28 -71 -25&#10;-138 11 -85 46 -156 31 -203 -44 -17 -27 -19 -42 -14 -97 10 -100 9 -110 -16&#10;-136 -45 -48 -121 -18 -134 53 -17 93 -67 143 -144 143 -58 0 -94 -22 -132&#10;-78 -40 -60 -56 -72 -91 -72 -36 0 -78 40 -78 75 0 14 14 49 30 78 47 83 37&#10;160 -27 205 -41 28 -72 33 -133 20 -71 -14 -106 -6 -125 32 -29 56 -2 100 75&#10;120 70 19 98 37 120 80 39 77 16 142 -71 200 -49 32 -54 39 -57 77 -6 84 58&#10;106 154 52 44 -26 63 -30 95 -26 49 6 84 29 110 70 17 27 19 41 13 87 -13 102&#10;-10 131 15 151 29 24 72 24 100 2z m1194 -510 c8 -10 20 -36 26 -59 16 -59 52&#10;-89 108 -89 46 0 56 8 113 83 23 31 53 35 83 11 34 -26 34 -49 1 -105 -33 -56&#10;-27 -101 18 -139 30 -26 36 -27 104 -20 71 6 73 6 90 -20 29 -45 10 -76 -61&#10;-100 -49 -17 -64 -27 -79 -56 -30 -56 -17 -101 43 -145 27 -19 51 -42 53 -52&#10;8 -28 -9 -61 -36 -73 -21 -10 -32 -8 -70 15 -50 29 -84 33 -124 12 -43 -22&#10;-55 -55 -48 -128 7 -67 3 -79 -31 -97 -38 -20 -71 4 -89 65 -19 66 -51 94&#10;-106 94 -40 0 -54 -11 -122 -91 -24 -28 -72 -25 -92 7 -17 25 -16 28 9 80 32&#10;64 33 88 8 130 -27 44 -69 59 -127 45 -38 -10 -50 -9 -69 3 -49 32 -36 97 22&#10;110 80 19 113 53 113 113 -1 40 -19 67 -67 102 -47 34 -56 70 -26 103 22 24&#10;45 23 101 -7 55 -29 63 -30 107 -9 48 23 70 73 56 129 -15 58 -14 62 9 85 25&#10;25 62 26 83 3z" style="fill: rgb(255, 255, 255);"/>
<path d="M3891 5096 c-57 -31 -67 -107 -22 -158 25 -28 36 -33 76 -33 40 0 51&#10;5 76 33 80 89 -25 216 -130 158z" style="fill: rgb(255, 255, 255);"/>
<path d="M4214 4935 c-15 -23 -15 -27 0 -50 30 -45 86 -28 86 27 0 49 -59 65&#10;-86 23z" style="fill: rgb(255, 255, 255);"/>
<path d="M5117 4700 c-63 -50 -52 -146 19 -176 44 -19 84 -11 117 22 31 31 39&#10;70 22 110 -26 63 -106 85 -158 44z" style="fill: rgb(255, 255, 255);"/>
<path d="M6388 2562 c-30 -18 -58 -67 -58 -102 0 -36 28 -85 59 -103 68 -40&#10;156 -7 181 68 25 75 -35 155 -113 155 -23 0 -54 -8 -69 -18z" style="fill: rgb(255, 255, 255);"/>
<path d="M6556 2274 c-55 -43 -86 -74 -86 -86 0 -25 59 -98 78 -98 9 0 23 7&#10;32 15 16 14 22 9 81 -67 100 -129 94 -116 69 -143 -14 -14 -19 -29 -14 -37 21&#10;-36 67 -88 78 -88 18 0 246 178 246 192 0 6 -15 30 -32 54 -32 42 -69 57 -83&#10;34 -3 -5 -10 -10 -15 -10 -5 0 -62 68 -126 150 -64 83 -122 150 -129 150 -7 0&#10;-51 -30 -99 -66z" style="fill: rgb(255, 255, 255);"/>
</g></g></svg>