<?xml version="1.0" encoding="utf-8"?>
<svg id="master-artboard" viewBox="0 0 1400 980" version="1.1" xmlns="http://www.w3.org/2000/svg" x="0px" y="0px" style="enable-background:new 0 0 1400 980;" width="1400px" height="980px"><g transform="matrix(6.8254634944794494, 0, 0, 6.8254634944794494, 210.00000602392902, 0.0000034990925996680744)"><title>DrugAlarmIcon</title><g id="Layer_5" data-name="Layer 5"><path id="Path_40-2" data-name="Path 40-2" class="cls-1" d="M75.29,3.5A71.79,71.79,0,1,1,3.5,75.29,71.79,71.79,0,0,1,75.29,3.5Z" transform="translate(-3.5 -3.5)" style="fill: rgb(238, 238, 238); fill-opacity: 1; stroke: rgb(18, 162, 249); stroke-opacity: 1;"/><g id="drug_alarm" data-name="drug alarm"><g id="Layer_5-2" data-name="Layer 5-2"><path d="M 19.639999 51.790001 H 38.869999 V 57.270001 H 19.639999 V 51.790001 Z" id="Rectangle_99-2" data-name="Rectangle 99-2" class="cls-2" style="fill: rgb(238, 238, 238); fill-opacity: 1; stroke: rgb(18, 162, 249); stroke-opacity: 1;"/><path d="M 20.99 57.779999 H 37.25 V 59.889999 H 20.99 V 57.779999 Z" id="Rectangle_100-2" data-name="Rectangle 100-2" class="cls-2" style="fill: rgb(238, 238, 238); fill-opacity: 1; stroke: rgb(18, 162, 249); stroke-opacity: 1;"/><path d="M 20.799999 60.439999 H 37.269999 V 70.169998 H 20.799999 V 60.439999 Z" id="Rectangle_101-2" data-name="Rectangle 101-2" class="cls-2" style="fill: rgb(238, 238, 238); fill-opacity: 1; stroke: rgb(18, 162, 249); stroke-opacity: 1;"/><path d="M 15.93 65.449997 H 21.940001 V 70.179997 H 15.93 V 65.449997 Z" id="Rectangle_102" data-name="Rectangle 102" class="cls-2" style="fill: rgb(238, 238, 238); fill-opacity: 1; stroke: rgb(18, 162, 249); stroke-opacity: 1;"/><path d="M 35.880001 65.309998 H 42.410001 V 70.199997 H 35.880001 V 65.309998 Z" id="Rectangle_103" data-name="Rectangle 103" class="cls-2" style="fill: rgb(238, 238, 238); fill-opacity: 1; stroke: rgb(18, 162, 249); stroke-opacity: 1;"/><path d="M 15.93 70.639999 H 41.860001 V 86.939999 H 15.93 V 70.639999 Z" id="Rectangle_104-2" data-name="Rectangle 104-2" class="cls-2" style="fill: rgb(238, 238, 238); fill-opacity: 1; stroke: rgb(18, 162, 249); stroke-opacity: 1;"/><path d="M 15.78 86.489998 H 42.27 V 97.019998 H 15.78 V 86.489998 Z" id="Rectangle_105-2" data-name="Rectangle 105-2" class="cls-2" style="fill: rgb(238, 238, 238); fill-opacity: 1; stroke: rgb(18, 162, 249); stroke-opacity: 1;"/><path d="M 13.1 94.800003 H 22.75 A 0.3 0.3 0 0 1 23.05 95.100003 V 97.920003 A 0.3 0.3 0 0 1 22.75 98.220003 H 13.1 A 0.3 0.3 0 0 1 12.8 97.920003 V 95.100003 A 0.3 0.3 0 0 1 13.1 94.800003 Z" id="Rectangle_106-2" data-name="Rectangle 106-2" class="cls-2" style="fill: rgb(238, 238, 238); fill-opacity: 1; stroke: rgb(18, 162, 249); stroke-opacity: 1;"/><path id="Rectangle_107" data-name="Rectangle 107" class="cls-2" d="M19.15,68.63l5-5,3.16,3.15-5,5Z" transform="translate(-3.5 -3.5)" style="fill: rgb(238, 238, 238); fill-opacity: 1; stroke: rgb(18, 162, 249); stroke-opacity: 1;"/><path d="M 38.790001 64.220001 H 43.250001 V 71.250001 H 38.790001 V 64.220001 Z" id="Rectangle_108" data-name="Rectangle 108" class="cls-2" transform="translate(-39.39 45.34) rotate(-45)" style="fill: rgb(238, 238, 238); fill-opacity: 1; stroke: rgb(18, 162, 249); stroke-opacity: 1;"/><path d="M 35.329999 94.800003 H 44.979999 A 0.3 0.3 0 0 1 45.279999 95.100003 V 97.920003 A 0.3 0.3 0 0 1 44.979999 98.220003 H 35.329999 A 0.3 0.3 0 0 1 35.029999 97.920003 V 95.100003 A 0.3 0.3 0 0 1 35.329999 94.800003 Z" id="Rectangle_109-2" data-name="Rectangle 109-2" class="cls-2" style="fill: rgb(238, 238, 238); fill-opacity: 1; stroke: rgb(18, 162, 249); stroke-opacity: 1;"/><path d="M 27.590001 92.470001 H 30.410001 A 0.3 0.3 0 0 1 30.710001 92.770001 V 102.420001 A 0.3 0.3 0 0 1 30.410001 102.720001 H 27.590001 A 0.3 0.3 0 0 1 27.290001 102.420001 V 92.770001 A 0.3 0.3 0 0 1 27.590001 92.470001 Z" id="Rectangle_110-2" data-name="Rectangle 110-2" class="cls-2" transform="translate(-64.02 45.59) rotate(-45)" style="fill: rgb(238, 238, 238); fill-opacity: 1; stroke: rgb(18, 162, 249); stroke-opacity: 1;"/></g><g id="Layer_3" data-name="Layer 3"><path d="M 112.210004 72.559998 H 142.110004 A 3.8 3.8 0 0 1 145.910004 76.359998 V 87.219997 A 3.8 3.8 0 0 1 142.110004 91.019997 H 112.210004 A 3.8 3.8 0 0 1 108.410004 87.219997 V 76.359998 A 3.8 3.8 0 0 1 112.210004 72.559998 Z" id="Rectangle_111-2" data-name="Rectangle 111-2" class="cls-2" transform="translate(3.32 169.84) rotate(-70.01)" style="fill: rgb(238, 238, 238); fill-opacity: 1; stroke: rgb(18, 162, 249); stroke-opacity: 1;"/><path id="Path_70" data-name="Path 70" class="cls-1" d="M121.67,90l-1.43,4.08a2.38,2.38,0,0,1-4.46-1.57l1.48-4.07A2.36,2.36,0,0,1,121.67,90Zm6.82-27.92L139,66a3.88,3.88,0,0,1,2.32,4.93L130.94,99.34a3.86,3.86,0,0,1-5,2.3h0l-10.52-3.86a3.87,3.87,0,0,1-2.32-4.93l10.33-28.48a3.86,3.86,0,0,1,5-2.24h0Zm10.35,4.25-10.51-3.86A3.42,3.42,0,0,0,124,64.41h0L113.61,93a3.37,3.37,0,0,0,1.93,4.35l.1,0h0l10.47,3.74a3.41,3.41,0,0,0,4.36-2L140.8,70.64a3.39,3.39,0,0,0-1.93-4.28Zm-9.26,1.93-1.46,4a2.4,2.4,0,0,1-4.52-1.59h0l1.45-4a2.37,2.37,0,0,1,4.46,1.56Zm-1.16,2.13-3.68-1.3-.64,1.78a2,2,0,0,0,3.65,1.39.42.42,0,0,0,0-.1Zm9.91,1-1.49,4.07a2.37,2.37,0,0,1-4.46-1.58l1.45-4.06a2.38,2.38,0,0,1,4.5,1.57Zm-1.21,2.08-3.69-1.21-.64,1.78a2,2,0,0,0,3.69,1.29Zm-2.94,9.16-1.43,4.07a2.35,2.35,0,0,1-4.44-1.56l1.43-4.08A2.39,2.39,0,0,1,132.87,80a2.34,2.34,0,0,1,1.31,2.65ZM133,84.8l-3.61-1.29-.64,1.78a1.95,1.95,0,0,0,3.64,1.38l0-.09Zm-7.47-5.33-1.45,4.19a2.36,2.36,0,0,1-4.44-1.58l1.41-4a2.36,2.36,0,0,1,3.11-1.2h0a2.42,2.42,0,0,1,1.35,2.67Zm-1.13,2.16-3.68-1.29-.64,1.77a1.95,1.95,0,0,0,3.67,1.3Zm6.11,11.59-1.45,4.06a2.36,2.36,0,0,1-4.44-1.57l1.43-4a2.37,2.37,0,0,1,4.38,1.56Zm-1.18,2.13L125.53,94l-.64,1.78a2,2,0,0,0,3.69,1.31Zm-8.75-3.19-3.74-1.35-.64,1.77a2,2,0,0,0,3.69,1.29Z" transform="translate(-3.5 -3.5)" style="fill: rgb(238, 238, 238); fill-opacity: 1; stroke: rgb(18, 162, 249); stroke-opacity: 1;"/><path d="M 94.04 63.07 H 106.419999 A 3.04 3.04 0 0 1 109.459999 66.11 V 97.53 A 3.04 3.04 0 0 1 106.419999 100.57 H 94.04 A 3.04 3.04 0 0 1 91 97.53 V 66.11 A 3.04 3.04 0 0 1 94.04 63.07 Z" id="Rectangle_112-2" data-name="Rectangle 112-2" class="cls-2" transform="translate(-25.43 35.7) rotate(-19.99)" style="fill: rgb(238, 238, 238); fill-opacity: 1; stroke: rgb(18, 162, 249); stroke-opacity: 1;"/><path id="Path_71" data-name="Path 71" class="cls-1" d="M101.21,91.62l1.51,4a2.37,2.37,0,0,1-4.44,1.66l-1.51-4a2.37,2.37,0,0,1,4.44-1.64ZM88.51,65.87,99,62a3.86,3.86,0,0,1,4.94,2.3L114.25,92.8a3.86,3.86,0,0,1-2.37,4.88l-10.47,3.86a3.86,3.86,0,0,1-4.85-2.2h0L86.11,70.78a3.88,3.88,0,0,1,2.38-4.92h0Zm10.68-3.39L88.68,66.34a3.37,3.37,0,0,0-2,4.32v0h0L97,99.17a3.41,3.41,0,0,0,4.35,2.11h0l10.53-3.86a3.42,3.42,0,0,0,1.93-4.36L103.57,64.58a3.42,3.42,0,0,0-4.42-1.93h0Zm-5.8,7.37,1.53,4a2.36,2.36,0,0,1-4.42,1.66l-1.66-4a2.37,2.37,0,0,1,4.4-1.6Zm.37,2.46-3.55,1.36.67,1.8A2,2,0,0,0,94.44,74Zm8.29-5.57,1.52,4a2.36,2.36,0,0,1-4.42,1.66l-1.51-4A2.36,2.36,0,0,1,102,66.78Zm.46,2.4-3.65,1.35.68,1.8a2,2,0,0,0,3.64-1.37ZM106.06,78,107.59,82a2.36,2.36,0,0,1-4.39,1.75l0-.09-1.51-4a2.4,2.4,0,1,1,4.56-1.48Zm.48,2.43L103,81.82l.68,1.8a2,2,0,0,0,3.55-1.41Zm-9.17.82,1.51,4A2.36,2.36,0,0,1,94.46,87h0l-1.53-4a2.38,2.38,0,1,1,4.46-1.66Zm.47,2.47-3.56,1.37L95,86.89a2,2,0,0,0,3.55-1.41Zm12.1,4.92,1.53,4a2.36,2.36,0,1,1-4.42,1.64l-1.53-4a2.37,2.37,0,0,1,4.42-1.68Zm.47,2.4-3.65,1.36.68,1.78A2,2,0,0,0,111,92.8Zm-8.75,3.18-3.55,1.24.67,1.78a2,2,0,0,0,3.56-1.41Z" transform="translate(-3.5 -3.5)" style="fill: rgb(238, 238, 238); fill-opacity: 1; stroke: rgb(18, 162, 249); stroke-opacity: 1;"/><path d="M 104.639996 55.310001 H 117.589996 A 3.8 3.8 0 0 1 121.389996 59.110001 V 93.510001 A 3.8 3.8 0 0 1 117.589996 97.310001 H 104.639996 A 3.8 3.8 0 0 1 100.839996 93.510001 V 59.110001 A 3.8 3.8 0 0 1 104.639996 55.310001 Z" id="Rectangle_113-2" data-name="Rectangle 113-2" class="cls-2" style="fill: rgb(238, 238, 238); fill-opacity: 1; stroke: rgb(18, 162, 249); stroke-opacity: 1;"/><path id="Path_72" data-name="Path 72" class="cls-1" d="M111.87,90.59v4.89a2.67,2.67,0,1,1-5.33.13h0v-5a2.67,2.67,0,0,1,5.33-.11Zm-3.55-32h12.46a4.33,4.33,0,0,1,4.32,4.33h0V96.7a4.31,4.31,0,0,1-4.32,4.32H108.32a4.31,4.31,0,0,1-4.31-4.3V62.9a4.32,4.32,0,0,1,4.31-4.34h0Zm12.46.51H108.32a3.86,3.86,0,0,0-3.86,3.86V96.73a3.86,3.86,0,0,0,3.86,3.87h12.5a3.86,3.86,0,0,0,3.86-3.87V63A3.86,3.86,0,0,0,121,59.1h-.09Zm-8.91,5.5v4.85a2.67,2.67,0,0,1-5.33,0h0V64.58a2.67,2.67,0,1,1,5.33-.13Zm-.42,2.68h-4.38v2.17a2.2,2.2,0,0,0,4.38,0Zm10.85-2.68v4.85a2.67,2.67,0,0,1-5.33,0h0V64.58a2.67,2.67,0,0,1,5.33,0Zm-.42,2.68h-4.39v2.17a2.21,2.21,0,0,0,4.39,0Zm.42,10.82v4.83A2.67,2.67,0,1,1,117,83h0V78.1a2.67,2.67,0,0,1,5.33,0Zm-.42,2.66h-4.39V83a2.21,2.21,0,0,0,4.39.44,3.23,3.23,0,0,0,0-.44Zm-10-2.64v4.83a2.67,2.67,0,0,1-5.33,0V78.1a2.67,2.67,0,0,1,5.33,0Zm-.42,2.66h-4.38V83a2.2,2.2,0,1,0,4.38.44,1.62,1.62,0,0,0,0-.44Zm10.85,9.85v4.87a2.67,2.67,0,1,1-5.33.13h0v-5a2.67,2.67,0,0,1,5.33,0h0Zm-.42,2.69h-4.39v2.18a2.21,2.21,0,0,0,4.39,0Zm-10.43,0h-4.38v2.18a2.2,2.2,0,0,0,4.38,0Z" transform="translate(-3.5 -3.5)" style="fill: rgb(238, 238, 238); fill-opacity: 1; stroke: rgb(18, 162, 249); stroke-opacity: 1;"/><path id="Path_69-2" data-name="Path 69-2" class="cls-1" d="M22.29,54.71v6.84h1.78v1.78L19,68.65V97.41H18a2.57,2.57,0,0,0,0,5.14h6.82a2.58,2.58,0,0,0,2.41-1.78h1.37l1,1a2.52,2.52,0,0,0,4.15-1h4a2.58,2.58,0,0,0,2.41,1.78H47a2.57,2.57,0,0,0,0-5.14h-.85V68.64L41,63.3V61.53H42.8V54.71Zm.85.85H41.93v5.16H23.18Zm1.78,6H40.37v1.77H24.92Zm-.52,2.53H40.71L45.37,69v4.52H19.72V69ZM19.72,74.35h5.14V89.8H19.72Zm6,0H39.36V89.8H25.71Zm14.52,0h5.12V89.8H40.23ZM19.72,90.59H45.35v6.82H40.23A2.57,2.57,0,0,0,37.66,100h0a1.62,1.62,0,0,0,0,.44,1.62,1.62,0,0,1,0-.44H33.94a2.52,2.52,0,0,0-.74-1.78l-1.78-1.77-.52-.6-2.39-2.4a2.57,2.57,0,0,0-3.55.68A2.53,2.53,0,0,0,25,97l.48.5H19.72Zm7.18,4.6c.47,0,1,1,1.62-.47l1.65,1.65-2.39,2.41-1.94-1.93c.91-.91.25-1.08.93-1.74.33-.33-.39-.38,0-.38ZM30.77,97l1.78,1.78a1.8,1.8,0,0,1-.63,2.46l-.05,0a1.91,1.91,0,0,1-1.74,0l-1.77-1.93ZM18,98.32h2.57v3.42H18c-.38,0-1.93-.95-1.81-1.59,0-1.56,1.12,0,1.12,0,.48.1-.1-1.83.69-1.83Zm3.42,0h3.44a7.19,7.19,0,0,1,.6,1.56c.27.93.79.89-.14,1.18-.33,0-.15,0-.46.68H21.44Zm18.79,0h3.44v3.42H40.23c-.56-.41-.5-.35-.77-1.3s-.78-.92.17-1.19c.31-.1.25-.93.6-.93Zm4.27,0h2.57a1.8,1.8,0,0,1,1.23,2.22,1.77,1.77,0,0,1-1.19,1.19H44.42ZM27.35,99.67l.41.4h-.37a1.7,1.7,0,0,1,0,.45,1.7,1.7,0,0,0,0-.45,2.67,2.67,0,0,0,0-.4Zm6.57.46a1.15,1.15,0,0,1,0,.37,1.7,1.7,0,0,0,0-.45Z" transform="translate(-3.5 -3.5)" style="fill: rgb(238, 238, 238); fill-opacity: 1; stroke: rgb(18, 162, 249); stroke-opacity: 1;"/></g><g id="Layer_4" data-name="Layer 4"><path id="Path_73" data-name="Path 73" class="cls-2" d="M56,46.76,57.11,48,46.35,57.88l-.23-.25a7.61,7.61,0,0,1,.38-10.75l0,0h0l.45-.42a6.35,6.35,0,0,1,9,.26l.06.07Z" transform="translate(-3.5 -3.5)" style="fill: rgb(238, 238, 238); fill-opacity: 1; stroke: rgb(18, 162, 249); stroke-opacity: 1;"/><path id="Path_74" data-name="Path 74" class="cls-2" d="M105.08,57.18l-.23.25-10.7-9.92,1.1-1.2a6.35,6.35,0,0,1,9-.39l.07.06h0l.46.43a7.6,7.6,0,0,1,.35,10.75l0,0Z" transform="translate(-3.5 -3.5)" style="fill: rgb(238, 238, 238); fill-opacity: 1; stroke: rgb(18, 162, 249); stroke-opacity: 1;"/><path d="M 99.469995 74.540001 A 27.379999 27.379999 0 0 1 72.089996 101.92 A 27.379999 27.379999 0 0 1 44.709997 74.540001 A 27.379999 27.379999 0 0 1 72.089996 47.160002 A 27.379999 27.379999 0 0 1 99.469995 74.540001 Z" id="Ellipse_14" data-name="Ellipse 14" class="cls-1" style="fill: rgb(238, 238, 238); fill-opacity: 1; stroke: rgb(18, 162, 249); stroke-opacity: 1;"/><path d="M 70.699997 50.900002 H 73.459997 V 53.660002 H 70.699997 V 50.900002 Z" id="Rectangle_115" data-name="Rectangle 115" class="cls-2" style="fill: rgb(238, 238, 238); fill-opacity: 1; stroke: rgb(18, 162, 249); stroke-opacity: 1;"/><path id="Path_75" data-name="Path 75" class="cls-2" d="M75.57,82a4.18,4.18,0,0,0,3.86-2.7H92.1a1.4,1.4,0,0,0,1.37-1.39,1.37,1.37,0,0,0-1.37-1.34H79.45A4.2,4.2,0,0,0,77,74V62.65a1.37,1.37,0,0,0-1.37-1.37h0a1.32,1.32,0,0,0-1.36,1.3,0,0,0,0,0,0,0V74a4.07,4.07,0,0,0,1.35,8Zm0-5.45a1.36,1.36,0,0,1,0,2.71,1.36,1.36,0,0,1-.93-2.32A1.4,1.4,0,0,1,75.57,76.51Z" transform="translate(-3.5 -3.5)" style="fill: rgb(238, 238, 238); fill-opacity: 1; stroke: rgb(18, 162, 249); stroke-opacity: 1;"/><path d="M 89.82 60.880001 H 92.58 V 63.640001 H 89.82 V 60.880001 Z" id="Rectangle_116" data-name="Rectangle 116" class="cls-2" transform="translate(-20.82 79.23) rotate(-45)" style="fill: rgb(238, 238, 238); fill-opacity: 1; stroke: rgb(18, 162, 249); stroke-opacity: 1;"/><path id="Path_76" data-name="Path 76" class="cls-2" d="M104,47.93h0a6.74,6.74,0,0,0-8.39-.88l9.25,9.17A6.5,6.5,0,0,0,104,47.93Z" transform="translate(-3.5 -3.5)" style="fill: rgb(238, 238, 238); fill-opacity: 1; stroke: rgb(18, 162, 249); stroke-opacity: 1;"/><path d="M 92.769997 72.980003 H 95.529997 V 75.740003 H 92.769997 V 72.980003 Z" id="Rectangle_117" data-name="Rectangle 117" class="cls-2" style="fill: rgb(238, 238, 238); fill-opacity: 1; stroke: rgb(18, 162, 249); stroke-opacity: 1;"/><path d="M 58.57 60.869999 H 61.33 V 63.629999 H 58.57 V 60.869999 Z" id="Rectangle_118" data-name="Rectangle 118" class="cls-2" transform="translate(-29.96 57.11) rotate(-44.99)" style="fill: rgb(238, 238, 238); fill-opacity: 1; stroke: rgb(18, 162, 249); stroke-opacity: 1;"/><path d="M 89.809998 92.110001 H 92.569998 V 94.870001 H 89.809998 V 92.110001 Z" id="Rectangle_119" data-name="Rectangle 119" class="cls-2" transform="translate(-42.91 88.37) rotate(-45)" style="fill: rgb(238, 238, 238); fill-opacity: 1; stroke: rgb(18, 162, 249); stroke-opacity: 1;"/><path d="M 70.699997 95.07 H 73.459997 V 97.83 H 70.699997 V 95.07 Z" id="Rectangle_120" data-name="Rectangle 120" class="cls-2" style="fill: rgb(238, 238, 238); fill-opacity: 1; stroke: rgb(18, 162, 249); stroke-opacity: 1;"/><path d="M 58.580002 92.099998 H 61.340002 V 94.859998 H 58.580002 V 92.099998 Z" id="Rectangle_121" data-name="Rectangle 121" class="cls-2" transform="translate(-52.04 66.27) rotate(-44.99)" style="fill: rgb(238, 238, 238); fill-opacity: 1; stroke: rgb(18, 162, 249); stroke-opacity: 1;"/><path id="Path_77" data-name="Path 77" class="cls-2" d="M44.65,58.63a1.94,1.94,0,0,0,1.47.7h0a2.09,2.09,0,0,0,1.48-.58l4.22-4.19,3,3a29,29,0,0,0,.27,40.88,25,25,0,0,0,2.45,2.15l-4.87,6.85a1.4,1.4,0,0,0,.35,1.94h0a1.71,1.71,0,0,0,.79.25A1.38,1.38,0,0,0,55,109l4.89-6.82a28.76,28.76,0,0,0,31.36,0l4.88,6.8a1.38,1.38,0,0,0,1.14.6,1.6,1.6,0,0,0,.8-.25,1.39,1.39,0,0,0,.34-1.93h0l-4.82-6.86A29,29,0,0,0,98.41,60c-.67-.85-1.41-1.68-2.16-2.46l3-3,4.23,4.25a2.11,2.11,0,0,0,1.45.58h.12a1.93,1.93,0,0,0,1.45-.69A9.48,9.48,0,0,0,106,46h0a9.49,9.49,0,0,0-12.73-.56,1.94,1.94,0,0,0-.74,1.46,2.18,2.18,0,0,0,.6,1.59l4.23,4.13L94.24,55.7a29,29,0,0,0-14.38-6.48v-3.1a2.78,2.78,0,0,0-2.77-2.78h-3A2.78,2.78,0,0,0,71.3,46.1h0v3.11A28.73,28.73,0,0,0,57,55.66l-3.09-3.07,4.23-4.17a2.06,2.06,0,0,0,.6-1.59A1.9,1.9,0,0,0,58,45.37,9.42,9.42,0,0,0,44.65,58.61ZM95.46,47.05a5.55,5.55,0,0,1,7.86,0l0,0,1.47,1.44a5.6,5.6,0,0,1,0,7.88ZM74.1,46.1h3v2.76h-3Zm1.47,5.5A26.25,26.25,0,1,1,49.34,77.87h0A26.27,26.27,0,0,1,75.57,51.62ZM47.82,47.2A5.56,5.56,0,0,1,55.54,47h.22l-9.41,9.39a5.55,5.55,0,0,1,0-7.86v0Z" transform="translate(-3.5 -3.5)" style="fill: rgb(238, 238, 238); fill-opacity: 1; stroke: rgb(18, 162, 249); stroke-opacity: 1;"/><path id="Path_78" data-name="Path 78" class="cls-2" d="M47.16,47.93a6.5,6.5,0,0,0-.81,8.29l9.25-9.15h0a7,7,0,0,0-8.38.86Z" transform="translate(-3.5 -3.5)" style="fill: rgb(238, 238, 238); fill-opacity: 1; stroke: rgb(18, 162, 249); stroke-opacity: 1;"/><path d="M 48.599998 72.980003 H 51.359998 V 75.740003 H 48.599998 V 72.980003 Z" id="Rectangle_122" data-name="Rectangle 122" class="cls-2" style="fill: rgb(238, 238, 238); fill-opacity: 1; stroke: rgb(18, 162, 249); stroke-opacity: 1;"/></g><path d="M 92.769997 72.980003 H 95.529997 V 75.740003 H 92.769997 V 72.980003 Z" id="Rectangle_123-2" data-name="Rectangle 123-2" class="cls-2" style="fill: rgb(238, 238, 238); fill-opacity: 1; stroke: rgb(18, 162, 249); stroke-opacity: 1;"/><path d="M 89.82 60.880001 H 92.58 V 63.640001 H 89.82 V 60.880001 Z" id="Rectangle_124-2" data-name="Rectangle 124-2" class="cls-2" transform="translate(-20.82 79.23) rotate(-45)" style="fill: rgb(238, 238, 238); fill-opacity: 1; stroke: rgb(18, 162, 249); stroke-opacity: 1;"/><path id="Path_79-2" data-name="Path 79-2" class="cls-2" d="M106,46h0a9.49,9.49,0,0,0-12.73-.56,1.9,1.9,0,0,0-.73,1.46,2.14,2.14,0,0,0,.6,1.59l4.23,4.17L94.25,55.7a28.93,28.93,0,0,0-14.39-6.47V46.12a2.78,2.78,0,0,0-2.76-2.78h-3A2.79,2.79,0,0,0,71.3,46.1h0v3.11A28.83,28.83,0,0,0,57,55.66l-3.09-3.07,4.23-4.17a2.08,2.08,0,0,0,.59-1.59A1.9,1.9,0,0,0,58,45.37,9.43,9.43,0,0,0,44.65,58.62a1.94,1.94,0,0,0,1.47.69h0a2.12,2.12,0,0,0,1.49-.58l4.21-4.19,3,3a29,29,0,0,0,.27,40.88,26.25,26.25,0,0,0,2.45,2.14l-4.86,6.86a1.39,1.39,0,0,0,.34,1.93h0a1.64,1.64,0,0,0,.8.25A1.37,1.37,0,0,0,55,109l4.88-6.8a28.76,28.76,0,0,0,31.36,0l4.89,6.8a1.33,1.33,0,0,0,1.14.6,1.6,1.6,0,0,0,.79-.25,1.39,1.39,0,0,0,.35-1.93h0l-4.83-6.86A29,29,0,0,0,98.42,60a31.64,31.64,0,0,0-2.17-2.45l3-3,4.23,4.25a2.11,2.11,0,0,0,1.44.58h.12a1.93,1.93,0,0,0,1.45-.69A9.47,9.47,0,0,0,106,46Zm-31.9.17h3v2.76h-3ZM101.8,77.87A26.25,26.25,0,1,1,75.55,51.62h0A26.25,26.25,0,0,1,101.8,77.87Z" transform="translate(-3.5 -3.5)" style="fill: rgb(238, 238, 238); fill-opacity: 1; stroke: rgb(18, 162, 249); stroke-opacity: 1;"/><path d="M 70.699997 50.91 H 73.459997 V 53.67 H 70.699997 V 50.91 Z" id="Rectangle_125-2" data-name="Rectangle 125-2" class="cls-2" style="fill: rgb(238, 238, 238); fill-opacity: 1; stroke: rgb(18, 162, 249); stroke-opacity: 1;"/><path d="M 48.599998 72.980003 H 51.359998 V 75.740003 H 48.599998 V 72.980003 Z" id="Rectangle_126-2" data-name="Rectangle 126-2" class="cls-2" style="fill: rgb(238, 238, 238); fill-opacity: 1; stroke: rgb(18, 162, 249); stroke-opacity: 1;"/><path id="Path_80-2" data-name="Path 80-2" class="cls-2" d="M92.14,76.54H79.47A4.24,4.24,0,0,0,77,74.05V62.65a1.38,1.38,0,0,0-1.37-1.37h0a1.35,1.35,0,0,0-1.37,1.3V74a4.11,4.11,0,1,0,5.33,5.33H92.17a1.39,1.39,0,0,0,1.39-1.39h0a1.36,1.36,0,0,0-1.32-1.41h0ZM75.57,79.22a1.36,1.36,0,1,1,1.2-1.51.76.76,0,0,1,0,.15A1.36,1.36,0,0,1,75.57,79.22Z" transform="translate(-3.5 -3.5)" style="fill: rgb(238, 238, 238); fill-opacity: 1; stroke: rgb(18, 162, 249); stroke-opacity: 1;"/><path d="M 58.57 92.099998 H 61.33 V 94.859998 H 58.57 V 92.099998 Z" id="Rectangle_127-2" data-name="Rectangle 127-2" class="cls-2" transform="translate(-52.05 66.28) rotate(-45)" style="fill: rgb(238, 238, 238); fill-opacity: 1; stroke: rgb(18, 162, 249); stroke-opacity: 1;"/><path d="M 89.809998 92.110001 H 92.569998 V 94.870001 H 89.809998 V 92.110001 Z" id="Rectangle_128-2" data-name="Rectangle 128-2" class="cls-2" transform="translate(-42.9 88.37) rotate(-45)" style="fill: rgb(238, 238, 238); fill-opacity: 1; stroke: rgb(18, 162, 249); stroke-opacity: 1;"/><path d="M 70.699997 95.07 H 73.459997 V 97.83 H 70.699997 V 95.07 Z" id="Rectangle_129-2" data-name="Rectangle 129-2" class="cls-2" style="fill: rgb(238, 238, 238); fill-opacity: 1; stroke: rgb(18, 162, 249); stroke-opacity: 1;"/><path d="M 58.59 60.889999 H 61.35 V 63.649999 H 58.59 V 60.889999 Z" id="Rectangle_130-2" data-name="Rectangle 130-2" class="cls-2" transform="translate(-29.97 57.15) rotate(-45)" style="fill: rgb(238, 238, 238); fill-opacity: 1; stroke: rgb(18, 162, 249); stroke-opacity: 1;"/></g><path id="Path_81" data-name="Path 81" class="cls-2" d="M17.79,101.74h.89a1.65,1.65,0,0,0,1.58-1.7h0a1.66,1.66,0,0,0-1.58-1.72h-.89A1.65,1.65,0,0,0,16.21,100h0a1.64,1.64,0,0,0,1.58,1.7Z" transform="translate(-3.5 -3.5)" style="fill: rgb(238, 238, 238); fill-opacity: 1; stroke: rgb(18, 162, 249); stroke-opacity: 1;"/><path d="M 20.02 94.839996 H 21.34 A 1.52 1.52 0 0 1 22.86 96.359996 V 96.739996 A 1.52 1.52 0 0 1 21.34 98.259996 H 20.02 A 1.52 1.52 0 0 1 18.5 96.739996 V 96.359996 A 1.52 1.52 0 0 1 20.02 94.839996 Z" id="Rectangle_131" data-name="Rectangle 131" class="cls-2" style="fill: rgb(238, 238, 238); fill-opacity: 1; stroke: rgb(18, 162, 249); stroke-opacity: 1;"/><path d="M 27.220001 93.839996 H 27.600001 A 1.52 1.52 0 0 1 29.120001 95.359996 V 96.679996 A 1.52 1.52 0 0 1 27.600001 98.199996 H 27.220001 A 1.52 1.52 0 0 1 25.700001 96.679996 V 95.359996 A 1.52 1.52 0 0 1 27.220001 93.839996 Z" id="Rectangle_132" data-name="Rectangle 132" class="cls-2" transform="translate(-63.38 44) rotate(-45)" style="fill: rgb(238, 238, 238); fill-opacity: 1; stroke: rgb(18, 162, 249); stroke-opacity: 1;"/><path d="M 36.490001 94.839996 H 37.810001 A 1.52 1.52 0 0 1 39.330001 96.359996 V 96.739996 A 1.52 1.52 0 0 1 37.810001 98.259996 H 36.490001 A 1.52 1.52 0 0 1 34.970001 96.739996 V 96.359996 A 1.52 1.52 0 0 1 36.490001 94.839996 Z" id="Rectangle_133" data-name="Rectangle 133" class="cls-2" style="fill: rgb(238, 238, 238); fill-opacity: 1; stroke: rgb(18, 162, 249); stroke-opacity: 1;"/></g></g></svg>