<?xml version="1.0" encoding="UTF-8" standalone="no"?>
<svg
   xmlns:dc="http://purl.org/dc/elements/1.1/"
   xmlns:cc="http://creativecommons.org/ns#"
   xmlns:rdf="http://www.w3.org/1999/02/22-rdf-syntax-ns#"
   xmlns:svg="http://www.w3.org/2000/svg"
   xmlns="http://www.w3.org/2000/svg"
   version="1.1"
   viewBox="0 0 143.58 143.58"
   data-name="Layer 1"
   id="Layer_1">
  <metadata
     id="metadata65">
    <rdf:RDF>
      <cc:Work
         rdf:about="">
        <dc:format>image/svg+xml</dc:format>
        <dc:type
           rdf:resource="http://purl.org/dc/dcmitype/StillImage" />
        <dc:title>DrugAlarmIcon</dc:title>
      </cc:Work>
    </rdf:RDF>
  </metadata>
  <defs
     id="defs4">
    <style
       id="style2">.cls-1{fill:#0b86ce;}.cls-2{fill:#fff;}</style>
  </defs>
  <title
     id="title6">DrugAlarmIcon</title>
  <g
     transform="matrix(1.3693831,0,0,1.3406285,-6.7973557,16.868821)"
     data-name="Layer 5"
     id="Layer_5">
    <path
       style="fill:#ffffff;fill-opacity:1;stroke:none;stroke-width:0.50871319;stroke-opacity:1"
       d="M 58.084053,3.4398053 A 36.629674,36.411681 0 1 1 21.454378,39.851488 36.629674,36.411681 0 0 1 58.084053,3.4398053 Z"
       class="cls-1"
       data-name="Path 40-2"
       id="Path_40-2" />
    <g
       style="fill:#12a2f9;fill-opacity:1;stroke:#000000;stroke-opacity:1"
       transform="matrix(0.43460052,0,0,0.47877295,27.095527,4.2741971)"
       data-name="drug alarm"
       id="drug_alarm">
      <g
         style="fill:#12a2f9;fill-opacity:1;stroke:#000000;stroke-opacity:1"
         data-name="Layer 5-2"
         id="Layer_5-2">
        <rect
           style="fill:#12a2f9;fill-opacity:1;stroke:#000000;stroke-opacity:1"
           height="5.48"
           width="19.23"
           y="51.790001"
           x="19.639999"
           class="cls-2"
           data-name="Rectangle 99-2"
           id="Rectangle_99-2" />
        <rect
           style="fill:#12a2f9;fill-opacity:1;stroke:#000000;stroke-opacity:1"
           height="2.1099999"
           width="16.26"
           y="57.779999"
           x="20.99"
           class="cls-2"
           data-name="Rectangle 100-2"
           id="Rectangle_100-2" />
        <rect
           style="fill:#12a2f9;fill-opacity:1;stroke:#000000;stroke-opacity:1"
           height="9.7299995"
           width="16.469999"
           y="60.439999"
           x="20.799999"
           class="cls-2"
           data-name="Rectangle 101-2"
           id="Rectangle_101-2" />
        <rect
           style="fill:#12a2f9;fill-opacity:1;stroke:#000000;stroke-opacity:1"
           height="4.73"
           width="6.0100002"
           y="65.449997"
           x="15.93"
           class="cls-2"
           data-name="Rectangle 102"
           id="Rectangle_102" />
        <rect
           style="fill:#12a2f9;fill-opacity:1;stroke:#000000;stroke-opacity:1"
           height="4.8899999"
           width="6.5300002"
           y="65.309998"
           x="35.880001"
           class="cls-2"
           data-name="Rectangle 103"
           id="Rectangle_103" />
        <rect
           style="fill:#12a2f9;fill-opacity:1;stroke:#000000;stroke-opacity:1"
           height="16.299999"
           width="25.93"
           y="70.639999"
           x="15.93"
           class="cls-2"
           data-name="Rectangle 104-2"
           id="Rectangle_104-2" />
        <rect
           style="fill:#12a2f9;fill-opacity:1;stroke:#000000;stroke-opacity:1"
           height="10.53"
           width="26.49"
           y="86.489998"
           x="15.78"
           class="cls-2"
           data-name="Rectangle 105-2"
           id="Rectangle_105-2" />
        <rect
           style="fill:#12a2f9;fill-opacity:1;stroke:#000000;stroke-opacity:1"
           rx="0.30000001"
           height="3.4200001"
           width="10.25"
           y="94.800003"
           x="12.8"
           class="cls-2"
           data-name="Rectangle 106-2"
           id="Rectangle_106-2" />
        <path
           style="fill:#12a2f9;fill-opacity:1;stroke:#000000;stroke-opacity:1"
           transform="translate(-3.5,-3.5)"
           d="m 19.15,68.63 5,-5 3.16,3.15 -5,5 z"
           class="cls-2"
           data-name="Rectangle 107"
           id="Rectangle_107" />
        <rect
           style="fill:#12a2f9;fill-opacity:1;stroke:#000000;stroke-opacity:1"
           transform="rotate(-45,35.035221,70.217936)"
           height="7.0300002"
           width="4.46"
           y="64.220001"
           x="38.790001"
           class="cls-2"
           data-name="Rectangle 108"
           id="Rectangle_108" />
        <rect
           style="fill:#12a2f9;fill-opacity:1;stroke:#000000;stroke-opacity:1"
           rx="0.30000001"
           height="3.4200001"
           width="10.25"
           y="94.800003"
           x="35.029999"
           class="cls-2"
           data-name="Rectangle 109-2"
           id="Rectangle_109-2" />
        <rect
           style="fill:#12a2f9;fill-opacity:1;stroke:#000000;stroke-opacity:1"
           transform="rotate(-45,23.021998,100.07398)"
           rx="0.30000001"
           height="10.25"
           width="3.4200001"
           y="92.470001"
           x="27.290001"
           class="cls-2"
           data-name="Rectangle 110-2"
           id="Rectangle_110-2" />
      </g>
      <g
         style="fill:#12a2f9;fill-opacity:1;stroke:#000000;stroke-opacity:1"
         data-name="Layer 3"
         id="Layer_3">
        <rect
           style="fill:#12a2f9;fill-opacity:1;stroke:#000000;stroke-opacity:1"
           transform="rotate(-70.01,122.91581,82.549715)"
           rx="3.8"
           height="18.459999"
           width="37.5"
           y="72.559998"
           x="108.41"
           class="cls-2"
           data-name="Rectangle 111-2"
           id="Rectangle_111-2" />
        <path
           style="fill:#ffffff;fill-opacity:1;stroke:#000000;stroke-opacity:1"
           transform="translate(-3.5,-3.5)"
           d="m 121.67,90 -1.43,4.08 a 2.38,2.38 0 0 1 -4.46,-1.57 l 1.48,-4.07 A 2.36,2.36 0 0 1 121.67,90 Z M 128.49,62.08 139,66 a 3.88,3.88 0 0 1 2.32,4.93 l -10.38,28.41 a 3.86,3.86 0 0 1 -5,2.3 v 0 l -10.52,-3.86 a 3.87,3.87 0 0 1 -2.32,-4.93 l 10.33,-28.48 a 3.86,3.86 0 0 1 5,-2.24 v 0 z m 10.35,4.25 -10.51,-3.86 A 3.42,3.42 0 0 0 124,64.41 v 0 L 113.61,93 a 3.37,3.37 0 0 0 1.93,4.35 h 0.1 v 0 l 10.47,3.74 a 3.41,3.41 0 0 0 4.36,-2 L 140.8,70.64 a 3.39,3.39 0 0 0 -1.93,-4.28 z m -9.26,1.93 -1.46,4 a 2.4,2.4 0 0 1 -4.52,-1.59 v 0 l 1.45,-4 a 2.37,2.37 0 0 1 4.46,1.56 z m -1.16,2.13 -3.68,-1.3 -0.64,1.78 a 2,2 0 0 0 3.65,1.39 0.42,0.42 0 0 0 0,-0.1 z m 9.91,1 -1.49,4.07 a 2.37,2.37 0 0 1 -4.46,-1.58 l 1.45,-4.06 a 2.3830076,2.3830076 0 0 1 4.5,1.57 z m -1.21,2.08 -3.69,-1.21 -0.64,1.78 a 2,2 0 0 0 3.69,1.29 z m -2.94,9.16 -1.43,4.07 a 2.3530406,2.3530406 0 0 1 -4.44,-1.56 l 1.43,-4.08 a 2.39,2.39 0 0 1 3.13,-1.06 2.34,2.34 0 0 1 1.31,2.65 z m -1.18,2.17 -3.61,-1.29 -0.64,1.78 a 1.95,1.95 0 0 0 3.64,1.38 v -0.09 z m -7.47,-5.33 -1.45,4.19 a 2.36,2.36 0 0 1 -4.44,-1.58 l 1.41,-4 a 2.36,2.36 0 0 1 3.11,-1.2 v 0 a 2.42,2.42 0 0 1 1.35,2.67 z m -1.13,2.16 -3.68,-1.29 -0.64,1.77 a 1.95,1.95 0 0 0 3.67,1.3 z m 6.11,11.59 -1.45,4.06 a 2.36,2.36 0 0 1 -4.44,-1.57 l 1.43,-4 a 2.37,2.37 0 0 1 4.38,1.56 z m -1.18,2.13 -3.8,-1.35 -0.64,1.78 a 2,2 0 0 0 3.69,1.31 z m -8.75,-3.19 -3.74,-1.35 -0.64,1.77 a 2,2 0 0 0 3.69,1.29 z"
           class="cls-1"
           data-name="Path 70"
           id="Path_70" />
        <rect
           style="fill:#12a2f9;fill-opacity:1;stroke:#000000;stroke-opacity:1"
           transform="rotate(-19.99,88.569065,89.997164)"
           rx="3.04"
           height="37.5"
           width="18.459999"
           y="63.07"
           x="91"
           class="cls-2"
           data-name="Rectangle 112-2"
           id="Rectangle_112-2" />
        <path
           style="fill:#12a2f9;fill-opacity:1;stroke:#000000;stroke-opacity:1"
           transform="translate(-3.5,-3.5)"
           d="m 101.21,91.62 1.51,4 a 2.3700844,2.3700844 0 0 1 -4.44,1.66 l -1.51,-4 a 2.37,2.37 0 0 1 4.44,-1.64 z M 88.51,65.87 99,62 a 3.86,3.86 0 0 1 4.94,2.3 l 10.31,28.5 a 3.86,3.86 0 0 1 -2.37,4.88 l -10.47,3.86 a 3.86,3.86 0 0 1 -4.85,-2.2 v 0 L 86.11,70.78 a 3.88,3.88 0 0 1 2.38,-4.92 v 0 z m 10.68,-3.39 -10.51,3.86 a 3.37,3.37 0 0 0 -2,4.32 v 0 0 L 97,99.17 a 3.41,3.41 0 0 0 4.35,2.11 v 0 l 10.53,-3.86 a 3.42,3.42 0 0 0 1.93,-4.36 L 103.57,64.58 a 3.42,3.42 0 0 0 -4.42,-1.93 v 0 z m -5.8,7.37 1.53,4 a 2.3607202,2.3607202 0 0 1 -4.42,1.66 l -1.66,-4 a 2.37,2.37 0 0 1 4.4,-1.6 z m 0.37,2.46 -3.55,1.36 0.67,1.8 A 2,2 0 0 0 94.44,74 Z m 8.29,-5.57 1.52,4 a 2.3607202,2.3607202 0 0 1 -4.42,1.66 l -1.51,-4 A 2.36,2.36 0 0 1 102,66.78 Z m 0.46,2.4 -3.65,1.35 0.68,1.8 a 2,2 0 0 0 3.64,-1.37 z m 3.55,8.86 1.53,4 a 2.3629748,2.3629748 0 0 1 -4.39,1.75 v -0.09 l -1.51,-4 a 2.4,2.4 0 1 1 4.56,-1.48 z m 0.48,2.43 -3.54,1.39 0.68,1.8 a 2,2 0 0 0 3.55,-1.41 z m -9.17,0.82 1.51,4 A 2.376915,2.376915 0 0 1 94.46,87 v 0 l -1.53,-4 a 2.38,2.38 0 1 1 4.46,-1.66 z m 0.47,2.47 -3.56,1.37 0.72,1.8 a 2,2 0 0 0 3.55,-1.41 z m 12.1,4.92 1.53,4 a 2.36,2.36 0 1 1 -4.42,1.64 l -1.53,-4 a 2.37,2.37 0 0 1 4.42,-1.68 z m 0.47,2.4 -3.65,1.36 0.68,1.78 A 2,2 0 0 0 111,92.8 Z m -8.75,3.18 -3.55,1.24 0.67,1.78 a 2,2 0 0 0 3.56,-1.41 z"
           class="cls-1"
           data-name="Path 71"
           id="Path_71" />
        <rect
           style="fill:#12a2f9;fill-opacity:1;stroke:#000000;stroke-opacity:1"
           rx="3.8"
           height="42"
           width="20.549999"
           y="55.310001"
           x="100.84"
           class="cls-2"
           data-name="Rectangle 113-2"
           id="Rectangle_113-2" />
        <path
           style="fill:#ffffff;fill-opacity:1;stroke:#000000;stroke-opacity:1"
           transform="translate(-3.5,-3.5)"
           d="m 111.87,90.59 v 4.89 a 2.67,2.67 0 1 1 -5.33,0.13 v 0 -5 a 2.67,2.67 0 0 1 5.33,-0.11 z m -3.55,-32 h 12.46 a 4.33,4.33 0 0 1 4.32,4.33 v 0 33.78 a 4.31,4.31 0 0 1 -4.32,4.32 h -12.46 a 4.31,4.31 0 0 1 -4.31,-4.3 V 62.9 a 4.32,4.32 0 0 1 4.31,-4.34 v 0 z m 12.46,0.51 h -12.46 a 3.86,3.86 0 0 0 -3.86,3.86 v 33.77 a 3.86,3.86 0 0 0 3.86,3.87 h 12.5 a 3.86,3.86 0 0 0 3.86,-3.87 V 63 A 3.86,3.86 0 0 0 121,59.1 h -0.09 z m -8.91,5.5 v 4.85 a 2.67,2.67 0 0 1 -5.33,0 v 0 -4.87 a 2.67,2.67 0 1 1 5.33,-0.13 z m -0.42,2.68 h -4.38 v 2.17 a 2.2,2.2 0 0 0 4.38,0 z M 122.3,64.6 v 4.85 a 2.67,2.67 0 0 1 -5.33,0 v 0 -4.87 a 2.67,2.67 0 0 1 5.33,0 z m -0.42,2.68 h -4.39 v 2.17 a 2.21,2.21 0 0 0 4.39,0 z m 0.42,10.82 v 4.83 A 2.67,2.67 0 1 1 117,83 v 0 -4.9 a 2.67,2.67 0 0 1 5.33,0 z m -0.42,2.66 h -4.39 V 83 a 2.21,2.21 0 0 0 4.39,0.44 3.23,3.23 0 0 0 0,-0.44 z m -10,-2.64 v 4.83 a 2.67,2.67 0 0 1 -5.33,0 V 78.1 a 2.67,2.67 0 0 1 5.33,0 z m -0.42,2.66 h -4.38 V 83 a 2.2010225,2.2010225 0 1 0 4.38,0.44 1.62,1.62 0 0 0 0,-0.44 z m 10.85,9.85 v 4.87 a 2.67,2.67 0 1 1 -5.33,0.13 v 0 -5 a 2.67,2.67 0 0 1 5.33,0 z m -0.42,2.69 h -4.39 v 2.18 a 2.21,2.21 0 0 0 4.39,0 z m -10.43,0 h -4.38 v 2.18 a 2.2,2.2 0 0 0 4.38,0 z"
           class="cls-1"
           data-name="Path 72"
           id="Path_72" />
        <path
           style="fill:#f00000;fill-opacity:0;stroke:#000000;stroke-opacity:1"
           transform="translate(-3.5,-3.5)"
           d="m 22.29,54.71 v 6.84 h 1.78 v 1.78 L 19,68.65 v 28.76 h -1 a 2.57,2.57 0 0 0 0,5.14 h 6.82 a 2.58,2.58 0 0 0 2.41,-1.78 h 1.37 l 1,1 a 2.52,2.52 0 0 0 4.15,-1 h 4 a 2.58,2.58 0 0 0 2.41,1.78 H 47 a 2.57,2.57 0 0 0 0,-5.14 H 46.15 V 68.64 L 41,63.3 v -1.77 h 1.8 v -6.82 z m 0.85,0.85 h 18.79 v 5.16 H 23.18 Z m 1.78,6 h 15.45 v 1.77 H 24.92 Z M 24.4,64.09 H 40.71 L 45.37,69 v 4.52 H 19.72 V 69 Z m -4.68,10.26 h 5.14 V 89.8 h -5.14 z m 6,0 H 39.36 V 89.8 H 25.71 Z m 14.52,0 h 5.12 V 89.8 H 40.23 Z M 19.72,90.59 h 25.63 v 6.82 H 40.23 A 2.57,2.57 0 0 0 37.66,100 v 0 a 1.62,1.62 0 0 0 0,0.44 1.62,1.62 0 0 1 0,-0.44 H 33.94 A 2.52,2.52 0 0 0 33.2,98.22 l -1.78,-1.77 -0.52,-0.6 -2.39,-2.4 A 2.57,2.57 0 0 0 24.96,94.13 2.53,2.53 0 0 0 25,97 l 0.48,0.5 h -5.76 z m 7.18,4.6 c 0.47,0 1,1 1.62,-0.47 l 1.65,1.65 -2.39,2.41 -1.94,-1.93 c 0.91,-0.91 0.25,-1.08 0.93,-1.74 0.33,-0.33 -0.39,-0.38 0,-0.38 z m 3.87,1.81 1.78,1.78 a 1.8,1.8 0 0 1 -0.63,2.46 h -0.05 a 1.91,1.91 0 0 1 -1.74,0 L 28.36,99.31 Z M 18,98.32 h 2.57 v 3.42 H 18 c -0.38,0 -1.93,-0.95 -1.81,-1.59 0,-1.56 1.12,0 1.12,0 0.48,0.1 -0.1,-1.83 0.69,-1.83 z m 3.42,0 h 3.44 a 7.19,7.19 0 0 1 0.6,1.56 c 0.27,0.93 0.79,0.89 -0.14,1.18 -0.33,0 -0.15,0 -0.46,0.68 h -3.42 z m 18.79,0 h 3.44 v 3.42 h -3.42 c -0.56,-0.41 -0.5,-0.35 -0.77,-1.3 -0.27,-0.95 -0.78,-0.92 0.17,-1.19 0.31,-0.1 0.25,-0.93 0.6,-0.93 z m 4.27,0 h 2.57 a 1.8,1.8 0 0 1 1.23,2.22 1.77,1.77 0 0 1 -1.19,1.19 h -2.67 z m -17.13,1.35 0.41,0.4 h -0.37 a 1.7,1.7 0 0 1 0,0.45 1.7,1.7 0 0 0 0,-0.45 2.67,2.67 0 0 0 0,-0.4 z m 6.57,0.46 a 1.15,1.15 0 0 1 0,0.37 1.7,1.7 0 0 0 0,-0.45 z"
           class="cls-1"
           data-name="Path 69-2"
           id="Path_69-2" />
      </g>
      <g
         style="fill:#12a2f9;fill-opacity:1;stroke:#ffffff;stroke-opacity:1"
         data-name="Layer 4"
         id="Layer_4">
        <path
           style="fill:#12a2f9;fill-opacity:1;stroke:#ffffff;stroke-opacity:1"
           transform="translate(-3.5,-3.5)"
           d="M 56,46.76 57.11,48 46.35,57.88 46.12,57.63 A 7.61,7.61 0 0 1 46.5,46.88 v 0 0 l 0.45,-0.42 a 6.35,6.35 0 0 1 9,0.26 l 0.06,0.07 z"
           class="cls-2"
           data-name="Path 73"
           id="Path_73" />
        <path
           style="fill:#12a2f9;fill-opacity:1;stroke:#ffffff;stroke-opacity:1"
           transform="translate(-3.5,-3.5)"
           d="m 105.08,57.18 -0.23,0.25 -10.7,-9.92 1.1,-1.2 a 6.35,6.35 0 0 1 9,-0.39 l 0.07,0.06 v 0 l 0.46,0.43 a 7.6,7.6 0 0 1 0.35,10.75 v 0 z"
           class="cls-2"
           data-name="Path 74"
           id="Path_74" />
        <circle
           style="fill:#ffffff;fill-opacity:1;stroke:#ffffff;stroke-opacity:1"
           r="27.379999"
           cy="74.540001"
           cx="72.089996"
           class="cls-1"
           data-name="Ellipse 14"
           id="Ellipse_14" />
        <rect
           style="fill:#12a2f9;fill-opacity:1;stroke:#ffffff;stroke-opacity:1"
           height="2.76"
           width="2.76"
           y="50.900002"
           x="70.699997"
           class="cls-2"
           data-name="Rectangle 115"
           id="Rectangle_115" />
        <path
           style="fill:#12a2f9;fill-opacity:1;stroke:#ffffff;stroke-opacity:1"
           transform="translate(-3.5,-3.5)"
           d="m 75.57,82 a 4.18,4.18 0 0 0 3.86,-2.7 H 92.1 A 1.4,1.4 0 0 0 93.47,77.91 1.37,1.37 0 0 0 92.1,76.57 H 79.45 A 4.2,4.2 0 0 0 77,74 V 62.65 a 1.37,1.37 0 0 0 -1.37,-1.37 v 0 a 1.32,1.32 0 0 0 -1.36,1.3 V 74 a 4.07,4.07 0 0 0 1.35,8 z m 0,-5.45 a 1.36,1.36 0 0 1 0,2.71 1.36,1.36 0 0 1 -0.93,-2.32 1.4,1.4 0 0 1 0.93,-0.43 z"
           class="cls-2"
           data-name="Path 75"
           id="Path_75" />
        <rect
           style="fill:#12a2f9;fill-opacity:1;stroke:#ffffff;stroke-opacity:1"
           transform="rotate(-45,85.22907,64.746963)"
           height="2.76"
           width="2.76"
           y="60.880001"
           x="89.82"
           class="cls-2"
           data-name="Rectangle 116"
           id="Rectangle_116" />
        <path
           style="fill:#12a2f9;fill-opacity:1;stroke:#ffffff;stroke-opacity:1"
           transform="translate(-3.5,-3.5)"
           d="m 104,47.93 v 0 a 6.74,6.74 0 0 0 -8.39,-0.88 l 9.25,9.17 A 6.5,6.5 0 0 0 104,47.93 Z"
           class="cls-2"
           data-name="Path 76"
           id="Path_76" />
        <rect
           style="fill:#12a2f9;fill-opacity:1;stroke:#ffffff;stroke-opacity:1"
           height="2.76"
           width="2.76"
           y="72.980003"
           x="92.769997"
           class="cls-2"
           data-name="Rectangle 117"
           id="Rectangle_117" />
        <rect
           style="fill:#12a2f9;fill-opacity:1;stroke:#ffffff;stroke-opacity:1"
           transform="rotate(-44.99,53.974888,64.728848)"
           height="2.76"
           width="2.76"
           y="60.869999"
           x="58.57"
           class="cls-2"
           data-name="Rectangle 118"
           id="Rectangle_118" />
        <rect
           style="fill:#12a2f9;fill-opacity:1;stroke:#ffffff;stroke-opacity:1"
           transform="rotate(-45,85.217026,95.981952)"
           height="2.76"
           width="2.76"
           y="92.110001"
           x="89.809998"
           class="cls-2"
           data-name="Rectangle 119"
           id="Rectangle_119" />
        <rect
           style="fill:#12a2f9;fill-opacity:1;stroke:#ffffff;stroke-opacity:1"
           height="2.76"
           width="2.76"
           y="95.07"
           x="70.699997"
           class="cls-2"
           data-name="Rectangle 120"
           id="Rectangle_120" />
        <rect
           style="fill:#12a2f9;fill-opacity:1;stroke:#ffffff;stroke-opacity:1"
           transform="rotate(-44.99,53.994715,95.968345)"
           height="2.76"
           width="2.76"
           y="92.099998"
           x="58.580002"
           class="cls-2"
           data-name="Rectangle 121"
           id="Rectangle_121" />
        <path
           style="fill:#12a2f9;fill-opacity:1;stroke:#ffffff;stroke-opacity:1"
           transform="translate(-3.5,-3.5)"
           d="m 44.65,58.63 a 1.94,1.94 0 0 0 1.47,0.7 v 0 a 2.09,2.09 0 0 0 1.48,-0.58 l 4.22,-4.19 3,3 a 29,29 0 0 0 0.27,40.88 25,25 0 0 0 2.45,2.15 l -4.87,6.85 a 1.4,1.4 0 0 0 0.35,1.94 v 0 a 1.71,1.71 0 0 0 0.79,0.25 A 1.38,1.38 0 0 0 55,109 l 4.89,-6.82 a 28.76,28.76 0 0 0 31.36,0 l 4.88,6.8 a 1.38,1.38 0 0 0 1.14,0.6 1.6,1.6 0 0 0 0.8,-0.25 1.39,1.39 0 0 0 0.34,-1.93 v 0 l -4.82,-6.86 A 29,29 0 0 0 98.41,60 C 97.74,59.15 97,58.32 96.25,57.54 l 3,-3 4.23,4.25 a 2.11,2.11 0 0 0 1.45,0.58 h 0.12 A 1.93,1.93 0 0 0 106.5,58.68 9.48,9.48 0 0 0 106,46 v 0 a 9.49,9.49 0 0 0 -12.73,-0.56 1.94,1.94 0 0 0 -0.74,1.46 2.18,2.18 0 0 0 0.6,1.59 l 4.23,4.13 -3.12,3.08 A 29,29 0 0 0 79.86,49.22 v -3.1 a 2.78,2.78 0 0 0 -2.77,-2.78 h -3 A 2.78,2.78 0 0 0 71.3,46.1 v 0 3.11 A 28.73,28.73 0 0 0 57,55.66 l -3.09,-3.07 4.23,-4.17 A 2.06,2.06 0 0 0 58.74,46.83 1.9,1.9 0 0 0 58,45.37 9.42,9.42 0 0 0 44.65,58.61 Z M 95.46,47.05 a 5.55,5.55 0 0 1 7.86,0 v 0 l 1.47,1.44 a 5.6,5.6 0 0 1 0,7.88 z M 74.1,46.1 h 3 v 2.76 h -3 z m 1.47,5.5 A 26.25,26.25 0 1 1 49.34,77.87 v 0 A 26.27,26.27 0 0 1 75.57,51.62 Z M 47.82,47.2 A 5.56,5.56 0 0 1 55.54,47 h 0.22 l -9.41,9.39 a 5.55,5.55 0 0 1 0,-7.86 v 0 z"
           class="cls-2"
           data-name="Path 77"
           id="Path_77" />
        <path
           style="fill:#12a2f9;fill-opacity:1;stroke:#ffffff;stroke-opacity:1"
           transform="translate(-3.5,-3.5)"
           d="m 47.16,47.93 a 6.5,6.5 0 0 0 -0.81,8.29 l 9.25,-9.15 v 0 a 7,7 0 0 0 -8.38,0.86 z"
           class="cls-2"
           data-name="Path 78"
           id="Path_78" />
        <rect
           style="fill:#12a2f9;fill-opacity:1;stroke:#ffffff;stroke-opacity:1"
           height="2.76"
           width="2.76"
           y="72.980003"
           x="48.599998"
           class="cls-2"
           data-name="Rectangle 122"
           id="Rectangle_122" />
      </g>
      <rect
         style="fill:#12a2f9;fill-opacity:1;stroke:#000000;stroke-opacity:1"
         height="2.76"
         width="2.76"
         y="72.980003"
         x="92.769997"
         class="cls-2"
         data-name="Rectangle 123-2"
         id="Rectangle_123-2" />
      <rect
         style="fill:#12a2f9;fill-opacity:1;stroke:#000000;stroke-opacity:1"
         transform="rotate(-45,85.22907,64.746963)"
         height="2.76"
         width="2.76"
         y="60.880001"
         x="89.82"
         class="cls-2"
         data-name="Rectangle 124-2"
         id="Rectangle_124-2" />
      <path
         style="fill:#12a2f9;fill-opacity:1;stroke:#000000;stroke-opacity:1"
         transform="translate(-3.5,-3.5)"
         d="m 106,46 v 0 a 9.49,9.49 0 0 0 -12.73,-0.56 1.9,1.9 0 0 0 -0.73,1.46 2.14,2.14 0 0 0 0.6,1.59 l 4.23,4.17 -3.12,3.04 A 28.93,28.93 0 0 0 79.86,49.23 V 46.12 A 2.78,2.78 0 0 0 77.1,43.34 h -3 a 2.79,2.79 0 0 0 -2.8,2.76 v 0 3.11 A 28.83,28.83 0 0 0 57,55.66 l -3.09,-3.07 4.23,-4.17 A 2.08,2.08 0 0 0 58.73,46.83 1.9,1.9 0 0 0 58,45.37 9.43,9.43 0 0 0 44.65,58.62 a 1.94,1.94 0 0 0 1.47,0.69 v 0 a 2.12,2.12 0 0 0 1.49,-0.58 l 4.21,-4.19 3,3 a 29,29 0 0 0 0.27,40.88 26.25,26.25 0 0 0 2.45,2.14 l -4.86,6.86 a 1.39,1.39 0 0 0 0.34,1.93 v 0 a 1.64,1.64 0 0 0 0.8,0.25 A 1.37,1.37 0 0 0 55,109 l 4.88,-6.8 a 28.76,28.76 0 0 0 31.36,0 l 4.89,6.8 a 1.33,1.33 0 0 0 1.14,0.6 1.6,1.6 0 0 0 0.79,-0.25 1.39,1.39 0 0 0 0.35,-1.93 v 0 l -4.83,-6.86 A 29,29 0 0 0 98.42,60 31.64,31.64 0 0 0 96.25,57.55 l 3,-3 4.23,4.25 a 2.11,2.11 0 0 0 1.44,0.58 h 0.12 A 1.93,1.93 0 0 0 106.49,58.69 9.47,9.47 0 0 0 106,46 Z m -31.9,0.17 h 3 v 2.76 h -3 z m 27.7,31.7 A 26.25,26.25 0 1 1 75.55,51.62 v 0 a 26.25,26.25 0 0 1 26.25,26.25 z"
         class="cls-2"
         data-name="Path 79-2"
         id="Path_79-2" />
      <rect
         style="fill:#12a2f9;fill-opacity:1;stroke:#000000;stroke-opacity:1"
         height="2.76"
         width="2.76"
         y="50.91"
         x="70.699997"
         class="cls-2"
         data-name="Rectangle 125-2"
         id="Rectangle_125-2" />
      <rect
         style="fill:#12a2f9;fill-opacity:1;stroke:#000000;stroke-opacity:1"
         height="2.76"
         width="2.76"
         y="72.980003"
         x="48.599998"
         class="cls-2"
         data-name="Rectangle 126-2"
         id="Rectangle_126-2" />
      <path
         style="fill:#12a2f9;fill-opacity:1;stroke:#000000;stroke-opacity:1"
         transform="translate(-3.5,-3.5)"
         d="M 92.14,76.54 H 79.47 A 4.24,4.24 0 0 0 77,74.05 v -11.4 a 1.38,1.38 0 0 0 -1.37,-1.37 v 0 a 1.35,1.35 0 0 0 -1.37,1.3 V 74 a 4.11,4.11 0 1 0 5.33,5.33 h 12.58 a 1.39,1.39 0 0 0 1.39,-1.39 v 0 a 1.36,1.36 0 0 0 -1.32,-1.41 v 0 z m -16.57,2.68 a 1.36,1.36 0 1 1 1.2,-1.51 0.76,0.76 0 0 1 0,0.15 1.36,1.36 0 0 1 -1.2,1.36 z"
         class="cls-2"
         data-name="Path 80-2"
         id="Path_80-2" />
      <rect
         style="fill:#12a2f9;fill-opacity:1;stroke:#000000;stroke-opacity:1"
         transform="rotate(-45,53.982037,95.969908)"
         height="2.76"
         width="2.76"
         y="92.099998"
         x="58.57"
         class="cls-2"
         data-name="Rectangle 127-2"
         id="Rectangle_127-2" />
      <rect
         style="fill:#12a2f9;fill-opacity:1;stroke:#000000;stroke-opacity:1"
         transform="rotate(-45,85.222026,95.969881)"
         height="2.76"
         width="2.76"
         y="92.110001"
         x="89.809998"
         class="cls-2"
         data-name="Rectangle 128-2"
         id="Rectangle_128-2" />
      <rect
         style="fill:#12a2f9;fill-opacity:1;stroke:#000000;stroke-opacity:1"
         height="2.76"
         width="2.76"
         y="95.07"
         x="70.699997"
         class="cls-2"
         data-name="Rectangle 129-2"
         id="Rectangle_129-2" />
      <rect
         style="fill:#12a2f9;fill-opacity:1;stroke:#000000;stroke-opacity:1"
         transform="rotate(-45,54.001153,64.75199)"
         height="2.76"
         width="2.76"
         y="60.889999"
         x="58.59"
         class="cls-2"
         data-name="Rectangle 130-2"
         id="Rectangle_130-2" />
    </g>
    <path
       style="fill:#12a2f9;fill-opacity:1;stroke-width:0.3086721"
       d="m 35.944395,50.710718 h 0.366879 a 0.68016892,0.38136937 0 0 0 0.651313,-0.392926 v 0 a 0.68429118,0.38368073 0 0 0 -0.651313,-0.397549 h -0.366879 a 0.68016892,0.38136937 0 0 0 -0.651314,0.388304 v 0 a 0.67604676,0.37905803 0 0 0 0.651314,0.392926 z"
       class="cls-2"
       data-name="Path 81"
       id="Path_81" />
    <rect
       style="fill:#12a2f9;fill-opacity:1;stroke-width:0.38440248"
       transform="matrix(-0.18371876,-0.98297885,0.89313329,0.4497921,0,0)"
       rx="0.63458145"
       height="1.5431756"
       width="1.4278082"
       y="34.310184"
       x="-33.800129"
       class="cls-2"
       data-name="Rectangle 132"
       id="Rectangle_132" />
  </g>
</svg>
