<?xml version="1.0" encoding="utf-8"?>
<svg id="master-artboard" viewBox="0 0 1400 980" version="1.1" xmlns="http://www.w3.org/2000/svg" x="0px" y="0px" style="enable-background:new 0 0 336 235.2;" width="1400px" height="980px"><g transform="matrix(0.9999999128069197, 0, 0, 0.9999999128069197, -0.00001801384860300459, 0.000048729225682109245)"><g transform="matrix(6.654444853938052, 0, 0, 6.654444853938052, 209.99995931136067, -5.684341886080802e-14)"><defs><radialGradient id="gradient-0" gradientUnits="objectBoundingBox" cx="0.5" cy="0.5" r="0.5">
                <stop offset="0" style="stop-color: #0b86ce"/>
                <stop offset="1" style="stop-color: #06476d"/>
              </radialGradient><radialGradient id="gradient-1" gradientUnits="objectBoundingBox" cx="0.5" cy="0.5" r="0.5">
                <stop offset="0" style="stop-color: #0b86ce"/>
                <stop offset="1" style="stop-color: #06476d"/>
              </radialGradient><radialGradient id="gradient-2" gradientUnits="objectBoundingBox" cx="0.5" cy="0.5" r="0.5">
                <stop offset="0" style="stop-color: #0b86ce"/>
                <stop offset="1" style="stop-color: #06476d"/>
              </radialGradient><radialGradient id="gradient-3" gradientUnits="objectBoundingBox" cx="0.5" cy="0.5" r="0.5">
                <stop offset="0" style="stop-color: #0b86ce"/>
                <stop offset="1" style="stop-color: #06476d"/>
              </radialGradient><radialGradient id="gradient-4" gradientUnits="objectBoundingBox" cx="0.5" cy="0.5" r="0.5">
                <stop offset="0" style="stop-color: #0b86ce"/>
                <stop offset="1" style="stop-color: #06476d"/>
              </radialGradient><radialGradient id="gradient-5" gradientUnits="objectBoundingBox" cx="0.5" cy="0.5" r="0.5">
                <stop offset="0" style="stop-color: #0b86ce"/>
                <stop offset="1" style="stop-color: #06476d"/>
              </radialGradient></defs><title>robotIcon</title><g id="noun_bot_927906" data-name="noun bot 927906"><path id="Path_25-2" data-name="Path 25-2" class="cls-1" d="M74.79,1.66A73.64,73.64,0,1,0,148.43,75.3,73.64,73.64,0,0,0,74.79,1.66Zm0,20.71a54.69,54.69,0,0,1,31,9.27l-5.24,5.06-.69.69a47.86,47.86,0,0,0-6.56-3A45.74,45.74,0,0,0,84.16,32a37.24,37.24,0,0,0-5.06-.52V26.69c-2.88-.12-5.81-.12-8.69,0v4.83c-1.66.12-3.39.29-5.06.52A55.63,55.63,0,0,0,56.2,34.4a47.74,47.74,0,0,0-6.55,3L49,36.7l-5.24-5.07A54.64,54.64,0,0,1,74.79,22.37ZM93.2,46.42a8,8,0,0,0-.12,1.1l0,1-.12,2-.29,6.79H57l-.34-6.74-.12-2-.05-1a6.85,6.85,0,0,0-.12-1.1,12,12,0,0,0-1.61-4,4.34,4.34,0,0,0-.69-.86l-.75-.74-1.44-1.38L50.4,38.13a49.85,49.85,0,0,1,6-3,47.36,47.36,0,0,1,9-2.64,46.2,46.2,0,0,1,5-.75v4.08c-3,.12-6.1.35-9.09.69v8.69c3-.34,6-.57,9.09-.69v9.09c2.88-.11,5.81-.11,8.69,0V44.52c3,.12,6.09.35,9.09.69V36.52c-3-.34-6-.57-9.09-.69V31.75A45.64,45.64,0,0,1,84,32.5a54.74,54.74,0,0,1,9,2.64,45.87,45.87,0,0,1,6,3l-1.44,1.38L96.13,40.9l-.75.75a7.59,7.59,0,0,0-.63.86A12.26,12.26,0,0,0,93.2,46.42ZM103,60.57a5.7,5.7,0,0,1,5.69,5.7v35A5.71,5.71,0,0,1,103,107H46.6a5.71,5.71,0,0,1-5.69-5.7v-35a5.7,5.7,0,0,1,5.69-5.7ZM25.6,70.18a12.63,12.63,0,0,0-6.67,9.32A11.67,11.67,0,0,1,23.7,73a7.45,7.45,0,0,1,1.9-1v19.5a15.44,15.44,0,0,1-1.9-1,11.26,11.26,0,0,1-4.77-6.5,12.24,12.24,0,0,0,4,7.48,15.11,15.11,0,0,0,2.65,1.84v1.78a14.49,14.49,0,0,1,0-27.84ZM27,102.63V61c0-11.73,6.5-22.26,16.68-29.34l4.78,5.53.52.57a40.93,40.93,0,0,0-8.75,6.74,31.88,31.88,0,0,0-8.86,16.85,28,28,0,0,0-.4,4.83L31,70.87,30.9,80.3l-.12,18.82v7.07a18.75,18.75,0,0,0,.35,2.59,13.83,13.83,0,0,0,4.77,7.6A15.26,15.26,0,0,1,27,102.63Zm75.59,37.74c0-.06,0-.06,0-.12v-.06a19.76,19.76,0,0,0-4.32-4.71,24.61,24.61,0,0,0-5.46-3.11,26.5,26.5,0,0,0-3.57-1.15l-.35.69a26.93,26.93,0,0,1,3.51,1.44,22,22,0,0,1,4.89,3.34,16.1,16.1,0,0,1,3.45,4.42,70.66,70.66,0,0,1-51.66,0,18.29,18.29,0,0,1,3.45-4.42,22.28,22.28,0,0,1,4.89-3.34,24.88,24.88,0,0,1,3.51-1.44,2.39,2.39,0,0,1-.34-.63A26,26,0,0,0,57,132.42a23.43,23.43,0,0,0-5.46,3.11,18.92,18.92,0,0,0-4.38,4.72l-.05.06h0A76,76,0,0,1,40.27,137c4-4.78,11.16-7.94,19.27-7.94h.92l.18-.35a2.91,2.91,0,0,1-.41-1.49,2,2,0,0,1,.41-1.32,2.94,2.94,0,0,1-.41-1.5,2.15,2.15,0,0,1,.41-1.32,2.94,2.94,0,0,1-.41-1.5,2.15,2.15,0,0,1,.41-1.32,2.78,2.78,0,0,1-.35-.86h1.5a1.78,1.78,0,0,0,.28.57,6.56,6.56,0,0,0,1.5,1.38,16.13,16.13,0,0,0,3.57,1.73,32.7,32.7,0,0,0,3.79.92,22.37,22.37,0,0,0,3.92.23,21.92,21.92,0,0,0,7.71-1.15,13.56,13.56,0,0,0,3.57-1.73,5.59,5.59,0,0,0,1.49-1.38,1.81,1.81,0,0,0,.29-.57h1.5a3.05,3.05,0,0,1-.35.86,2.23,2.23,0,0,1,.4,1.32,2.93,2.93,0,0,1-.4,1.5,2.21,2.21,0,0,1,.4,1.32,2.93,2.93,0,0,1-.4,1.5,2.21,2.21,0,0,1,.4,1.32,2.9,2.9,0,0,1-.4,1.49l.17.35h.92c8.11,0,15.25,3.16,19.27,7.94a48.86,48.86,0,0,1-6.79,3.39ZM81.17,120.8a22.18,22.18,0,0,1-6.38.87,21.62,21.62,0,0,1-6.39-.87,16.34,16.34,0,0,1-3.62-1.43h.34a19.63,19.63,0,0,0,2,.8,29.21,29.21,0,0,0,3.8.92,21.28,21.28,0,0,0,3.91.23,17.77,17.77,0,0,0,3.92-.23,17.05,17.05,0,0,0,3.79-.92c.64-.23,1.33-.52,2-.8h.35A16.31,16.31,0,0,1,81.17,120.8ZM86,119.71c.17,0,.46.06.35.23-.81,1.09-5.58,2.88-7,2.53-.18-.06,0-.23.11-.4Zm-15.82,2.36c.18.11.29.34.12.4-1.38.34-6.16-1.44-7-2.53-.12-.12.17-.23.34-.23Zm41.14-7.25a11.51,11.51,0,0,1-3.86,1.61,13,13,0,0,1-2.07.23H44.19a8.48,8.48,0,0,1-2.07-.23,10.5,10.5,0,0,1-3.86-1.61,11.45,11.45,0,0,1-4.77-6.68,8.47,8.47,0,0,1-.29-2.07v-7l-.12-18.81L33,70.81,33,66.09A28.8,28.8,0,0,1,41.3,45.38a42.55,42.55,0,0,1,8.41-6.9l1.43,1.67,1.33,1.5a6.32,6.32,0,0,1,.63.74,5.8,5.8,0,0,1,.46.75,9.66,9.66,0,0,1,1.1,3.51v.86l-.06,1-.12,2-.28,6.79H46.6a9,9,0,0,0-8.92,8.92v35a9,9,0,0,0,8.92,8.92H103a9,9,0,0,0,8.91-8.92v-35A9,9,0,0,0,103,57.29h-7.6l-.29-6.73-.11-2-.06-1v-.86A10.06,10.06,0,0,1,96,43.2a7.17,7.17,0,0,1,.46-.75c.17-.23.4-.46.63-.75l1.32-1.49,1.44-1.67a38.69,38.69,0,0,1,8.4,6.9,30.7,30.7,0,0,1,8,16.17c.12.75.17,1.49.23,2.24a6.7,6.7,0,0,1,.06,1.1V66.1l-.06,4.72-.06,9.43-.11,18.81v7a13,13,0,0,1-.28,2.07,11.83,11.83,0,0,1-4.84,6.67Zm11.27-12.2a15.16,15.16,0,0,1-8.8,13.69,13.87,13.87,0,0,0,4.78-7.59,20.63,20.63,0,0,0,.34-2.59V99.05l-.11-18.81-.06-9.43-.06-4.72,0-1.21c0-.4-.06-.8-.06-1.21a17.71,17.71,0,0,0-.35-2.41A31.2,31.2,0,0,0,115,52.17a36.08,36.08,0,0,0-5.69-7.71,41.46,41.46,0,0,0-8.75-6.73l.52-.58,4.77-5.52c10.24,7.08,16.69,17.61,16.69,29.34v41.65ZM124,95.09V93.3a12.08,12.08,0,0,0,2.65-1.84,11.94,11.94,0,0,0,4-7.48,11.62,11.62,0,0,1-4.77,6.5,7.14,7.14,0,0,1-1.9,1V72a15.51,15.51,0,0,1,1.9,1,11.23,11.23,0,0,1,4.77,6.5,12.21,12.21,0,0,0-4-7.48A14.26,14.26,0,0,0,124,70.12v-3a14.77,14.77,0,0,1,10.47,13.92,15,15,0,0,1-10.47,14Z" transform="translate(-1.15 -1.66)" style="fill: rgb(255, 255, 255);"/><path id="Path_26" data-name="Path 26" class="cls-1" d="M87.21,129.26l-.17-.11-.17.11a15.67,15.67,0,0,1-5.7,2.88,24.13,24.13,0,0,1-12.77,0,13.66,13.66,0,0,1-5.69-2.88l-.17-.11-.18.11a1.37,1.37,0,0,0-.74.92,1.66,1.66,0,0,0,.34,1.1,6.79,6.79,0,0,0,1.5,1.38A15.8,15.8,0,0,0,67,134.38a29.61,29.61,0,0,0,3.8.92,21.45,21.45,0,0,0,3.92.23,17.68,17.68,0,0,0,3.91-.23,17.14,17.14,0,0,0,3.8-.92A13.78,13.78,0,0,0,86,132.66a5.81,5.81,0,0,0,1.5-1.38,1.66,1.66,0,0,0,.34-1.1A.92.92,0,0,0,87.21,129.26Zm-17,4.54c-1.38.35-6.15-1.44-7-2.53-.11-.11.18-.23.35-.23l6.5,2.36c.17.18.29.35.11.41Zm16.06-2.53c-.81,1.1-5.58,2.88-7,2.53-.17-.05,0-.23.12-.4L86,131c.17,0,.4.12.34.23Z" transform="translate(-1.15 -1.66)" style="fill: rgb(255, 255, 255);"/><path id="Path_27" data-name="Path 27" class="cls-1" d="M87.21,126.44l-.17-.11-.17.17a15.67,15.67,0,0,1-5.7,2.88,21.83,21.83,0,0,1-6.38.86,24.18,24.18,0,0,1-6.39-.86,13.78,13.78,0,0,1-5.69-2.88l-.17-.12-.18.12a1.37,1.37,0,0,0-.74.92,1.68,1.68,0,0,0,.34,1.1,6.79,6.79,0,0,0,1.5,1.38A15.8,15.8,0,0,0,67,131.62a29.61,29.61,0,0,0,3.8.92,22.37,22.37,0,0,0,3.92.23,17.68,17.68,0,0,0,3.91-.23,17.14,17.14,0,0,0,3.8-.92A13.78,13.78,0,0,0,86,129.9a5.81,5.81,0,0,0,1.5-1.38,1.68,1.68,0,0,0,.34-1.1A1,1,0,0,0,87.21,126.44Zm-17,4.54c-1.38.35-6.15-1.43-7-2.53-.11-.11.18-.23.35-.17l6.5,2.36c.17.06.29.29.11.35Zm16.06-2.53c-.81,1.1-5.58,2.88-7,2.53-.17,0,0-.23.12-.4l6.5-2.36c.17,0,.4.07.34.24Z" transform="translate(-1.15 -1.66)" style="fill: rgb(255, 255, 255);"/><path id="Path_28" data-name="Path 28" class="cls-1" d="M63.51,127a15.67,15.67,0,0,0,3.57,1.72,28.82,28.82,0,0,0,3.8.92,22.2,22.2,0,0,0,3.91.23,17.77,17.77,0,0,0,3.92-.23,17.05,17.05,0,0,0,3.79-.92A13.84,13.84,0,0,0,86.07,127a4.8,4.8,0,0,0,1.49-1.38,1.63,1.63,0,0,0,.35-1.1,1.32,1.32,0,0,0-.75-1l-.17-.11-.11.17a15.75,15.75,0,0,1-5.7,2.88,24.13,24.13,0,0,1-12.77,0,13.82,13.82,0,0,1-5.7-2.88l-.17-.12-.17.12a1.39,1.39,0,0,0-.75.92,1.63,1.63,0,0,0,.35,1.1A7,7,0,0,0,63.51,127Zm15.94.75,6.5-2.36c.17,0,.46,0,.34.23-.8,1.09-5.58,2.87-7,2.53C79.16,128.11,79.28,127.88,79.45,127.77Zm-15.82-2.36,6.5,2.36c.17.11.29.34.12.4-1.38.34-6.16-1.44-7-2.53-.05-.18.18-.23.35-.23Z" transform="translate(-1.15 -1.66)" style="fill: rgb(255, 255, 255);"/><path id="Path_29" data-name="Path 29" class="cls-1" d="M63.51,124.14a15.67,15.67,0,0,0,3.57,1.72,28.82,28.82,0,0,0,3.8.92,21.28,21.28,0,0,0,3.91.23,17.77,17.77,0,0,0,3.92-.23,17.05,17.05,0,0,0,3.79-.92,13.22,13.22,0,0,0,3.57-1.72,4.94,4.94,0,0,0,1.5-1.38,1.66,1.66,0,0,0,.34-1.1,1.31,1.31,0,0,0-.75-1l-.17-.12-.17.12a15.65,15.65,0,0,1-5.7,2.87,21.83,21.83,0,0,1-6.38.86,21.28,21.28,0,0,1-6.39-.86,13.58,13.58,0,0,1-5.69-2.87l-.18-.12-.17.12a1.35,1.35,0,0,0-.75,1,1.63,1.63,0,0,0,.35,1.1A5.85,5.85,0,0,0,63.51,124.14Zm15.94.81,6.5-2.36c.17,0,.46.06.34.17-.8,1.1-5.58,2.88-7,2.53-.17,0,0-.23.12-.34Zm-15.82-2.36,6.5,2.36c.17.11.29.34.12.4-1.38.34-6.16-1.44-7-2.53-.06-.17.17-.23.34-.23Z" transform="translate(-1.15 -1.66)" style="fill: rgb(255, 255, 255);"/><path id="Path_30" data-name="Path 30" class="cls-1" d="M42.69,66.27v35a3.92,3.92,0,0,0,3.91,3.92H103a3.92,3.92,0,0,0,3.91-3.92v-35A3.91,3.91,0,0,0,103,62.36H46.6A3.91,3.91,0,0,0,42.69,66.27ZM84.28,86.35a8.57,8.57,0,0,1,17.14,0v1.72a1.66,1.66,0,0,1-1.66,1.67H86a1.67,1.67,0,0,1-1.67-1.67V86.35Zm-36.07,0a8.57,8.57,0,1,1,17.14,0v1.72a1.66,1.66,0,0,1-1.66,1.67H49.88a1.67,1.67,0,0,1-1.67-1.67Z" transform="translate(-1.15 -1.66)" style="fill: rgb(255, 255, 255);"/></g></g></g></svg>