<?xml version="1.0" encoding="utf-8"?>
<svg id="master-artboard" viewBox="0 0 1400 980" version="1.1" xmlns="http://www.w3.org/2000/svg" x="0px" y="0px" style="enable-background:new 0 0 1400 980;" width="1400px" height="980px"><g transform="matrix(6.690333346424002, 0, 0, 6.690333346424002, 210.23420337545042, 3.3823260991994175e-7)"><title>skinDetectionIcon</title><g id="noun_Search_2179717" data-name="noun Search 2179717"><path id="Path_40-2" data-name="Path 40-2" class="cls-1" d="M75.81,0A72.82,72.82,0,1,1,3,72.82,72.82,72.82,0,0,1,75.81,0Z" transform="translate(-2.99)" style="fill: rgb(238, 238, 238); stroke: rgb(18, 162, 249);"/><path id="Path_31-2" data-name="Path 31-2" class="cls-2" d="M143.94,145.41c-2.34-1.88-27.9-26.63-27.9-26.63a61.07,61.07,0,1,1,4.94-4.93S147.85,137,149.15,142,146.28,147.28,143.94,145.41Zm-68.42-126a53.93,53.93,0,1,0,53.92,53.93h0A53.92,53.92,0,0,0,75.52,19.39Z" transform="translate(-2.99)" style="fill: rgb(238, 238, 238); stroke: rgb(18, 162, 249);"/><path id="Path_32-2" data-name="Path 32-2" class="cls-2" d="M120.83,80.87a3.64,3.64,0,0,1-3.26.91,11,11,0,0,1-3.5-1.28,8.5,8.5,0,0,0-9.6,1.11,11.13,11.13,0,0,1-3.07,2,1.63,1.63,0,0,1-1.75,0,19.1,19.1,0,0,1-3.08-2.19,8.94,8.94,0,0,0-6.85-1.2A9.48,9.48,0,0,1,89.89,78c.54-2.19,1.26-2.73,3.63-2.73h28a2.38,2.38,0,0,0,0-4.75H107.08a20.5,20.5,0,0,0-.72-3.1,69.23,69.23,0,0,0-6.52-16.61,42.09,42.09,0,0,0-5.06-7.49c-.37-.36-.72-.54-1.09-.36s-.37.73-.17,1.1a40.13,40.13,0,0,1,2,3.56,60.27,60.27,0,0,1,5.06,13.51,15.46,15.46,0,0,1-.17,8.76c-.18.19-.18.37-.18.73H93.52a7.5,7.5,0,0,0-8.15,6.75v.2a23.07,23.07,0,0,0,1.26,10.51,25.67,25.67,0,0,0,1.45,3.1,9.75,9.75,0,0,1,.91,2,14.36,14.36,0,0,1-2.36,15.05,11.43,11.43,0,0,1-7.24,2.91h-.17a2.51,2.51,0,0,0-1.09.19h-2a3.77,3.77,0,0,0-1.45-.19,4.54,4.54,0,0,0-1.46-.18,10.67,10.67,0,0,1-8.5-9.74,14.34,14.34,0,0,1,1.63-8.76l.37-.74a23.56,23.56,0,0,0,2.34-5.66,19.23,19.23,0,0,0,0-10.21v-.2a7.31,7.31,0,0,0-7.23-4.92H50.46a32.54,32.54,0,0,0-.73-4.38,68.79,68.79,0,0,0-6.51-16.61,43.1,43.1,0,0,0-5.06-7.48c-.37-.37-.74-.54-1.09-.37s-.36.73-.19,1.1a34,34,0,0,1,2,3.65A60.79,60.79,0,0,1,44,60.18a16.58,16.58,0,0,1,.53,4.38,17.65,17.65,0,0,1-.71,4.38c-.2.73-.37,1.28-.54,2H31.82a2.37,2.37,0,1,0,0,4.73h30a3,3,0,0,1,2.72,1.76,21.43,21.43,0,0,1,.37,4.73,22.63,22.63,0,0,1-4.35-1.28,8.25,8.25,0,0,0-9,1.1c-.91.74-2,1.28-3.08,2a2.21,2.21,0,0,1-2.55,0c-.89-.56-1.61-1.1-2.35-1.65a6.27,6.27,0,0,0-5.06-1.64,9.16,9.16,0,0,0-6.32,3.5A1.75,1.75,0,0,0,32,86.59c.72.73,1.61.36,2.35-.36a8.48,8.48,0,0,1,2.52-2,3.77,3.77,0,0,1,4.35.37A22.36,22.36,0,0,0,44.73,87a4.36,4.36,0,0,0,4.89-.17,32.15,32.15,0,0,0,3.26-2,5.41,5.41,0,0,1,6.69-.71A25.61,25.61,0,0,0,64,85.48a16.41,16.41,0,0,1-1.75,4l-.37.72a19.71,19.71,0,0,0-2,11.69A15.92,15.92,0,0,0,72,115.8c.72.17,1.46.17,2,.35a3.85,3.85,0,0,0,1.26.19h2.89a1,1,0,0,0,.72-.19h.54A15.82,15.82,0,0,0,89.35,112a18.31,18.31,0,0,0,3.51-20.45l-1.08-2.19c-.35-.92-.89-1.76-1.26-2.56s-.52-1.57-.72-2.37a4.35,4.35,0,0,1,5.07.37,17.5,17.5,0,0,0,2.89,2,5.25,5.25,0,0,0,5.43.19,20.74,20.74,0,0,0,3.8-2.56,4.91,4.91,0,0,1,4.15-.91,9.19,9.19,0,0,1,2.18.74,13,13,0,0,0,5.78,1.45,5.63,5.63,0,0,0,3.8-2,1.75,1.75,0,0,0-.18-2.19C122.27,80.33,121.38,80.22,120.83,80.87Z" transform="translate(-2.99)" style="fill: rgb(238, 238, 238); stroke: rgb(18, 162, 249);"/><path id="Path_33-2" data-name="Path 33-2" class="cls-2" d="M61.09,42.07a127.2,127.2,0,0,1,10.13,27,27.07,27.07,0,0,1,.9,8.59,34.7,34.7,0,0,1-1.44,8.58c-.72,2.91-2,5.64-1.63,8.76v1.46a8.23,8.23,0,0,0,2.72,6.43,7.63,7.63,0,0,0,10.76-1,8.2,8.2,0,0,0,.82-1.2,14,14,0,0,0,1.43-8A51.53,51.53,0,0,0,82.8,81,133.82,133.82,0,0,0,70,47.78,111.55,111.55,0,0,0,59.82,32.62c-.72-.91-1.44-1.08-2.16-.54a1.75,1.75,0,0,0-.37,2.37C58.55,37,60,39.51,61.09,42.07Z" transform="translate(-2.99)" style="fill: rgb(238, 238, 238); stroke: rgb(18, 162, 249);"/><path id="Path_34-2" data-name="Path 34-2" class="cls-2" d="M113.8,93.93h0a5.34,5.34,0,0,0-5.43,5.26v.21a5.52,5.52,0,0,0,5.38,5.66h0a5.55,5.55,0,0,0,4-1.65,5.66,5.66,0,0,0,1.63-4,5.25,5.25,0,0,0-1.63-3.84A5.63,5.63,0,0,0,113.8,93.93Zm2,7.41a2.72,2.72,0,0,1-2,.72,2.52,2.52,0,0,1-2.55-2.49c0-.08,0-.16,0-.24a2.69,2.69,0,0,1,2.63-2.74H114a3.85,3.85,0,0,1,2,.74,2.35,2.35,0,0,1,.71,1.75,5.79,5.79,0,0,1-.91,2.26Z" transform="translate(-2.99)" style="fill: rgb(238, 238, 238); stroke: rgb(18, 162, 249);"/><path id="Path_35-2" data-name="Path 35-2" class="cls-2" d="M101.06,96.25a3.18,3.18,0,0,0,3.08-3.1,3,3,0,0,0-.91-2.19,2.8,2.8,0,0,0-2.17-.91,3,3,0,0,0-2.18.91,3.15,3.15,0,0,0-1.08,2.19,3.34,3.34,0,0,0,3.26,3.1ZM100.34,93c0-.19.18-.36.18-.56a.69.69,0,0,1,.54-.17h0c.17,0,.36.17.53.17a.73.73,0,0,1,.18.56.77.77,0,0,1-.72.72h0a.77.77,0,0,1-.72-.72Z" transform="translate(-2.99)" style="fill: rgb(238, 238, 238); stroke: rgb(18, 162, 249);"/><path id="Path_36-2" data-name="Path 36-2" class="cls-2" d="M101.44,102.55h0a6.54,6.54,0,0,0-4.17,1.64,5.82,5.82,0,0,0,4.17,9.85h0a7,7,0,0,0,4.15-1.63,5.72,5.72,0,0,0,1.63-4,5.86,5.86,0,0,0-5.78-5.86Zm1.75,7.67a2.52,2.52,0,0,1-1.75.91h0a2.49,2.49,0,0,1-2.55-2.43v-.13a4,4,0,0,1,.72-1.92,2.46,2.46,0,0,1,2-.72h0a2.64,2.64,0,0,1,2.54,2.73,4,4,0,0,1-.91,1.49Z" transform="translate(-2.99)" style="fill: rgb(238, 238, 238); stroke: rgb(18, 162, 249);"/><path id="Path_37-2" data-name="Path 37-2" class="cls-2" d="M39.25,97.58h0a4.28,4.28,0,0,0-2.54.91,3,3,0,0,0-1,2.36,3.28,3.28,0,0,0,3.28,3.3h.22a3.14,3.14,0,0,0,3.26-3,1,1,0,0,0,0-.25,3.9,3.9,0,0,0-.91-2.37A4.26,4.26,0,0,0,39.25,97.58Zm0,5.11h0a1.63,1.63,0,0,1-1.63-1.63v0a2,2,0,0,1,.37-1.1,1.66,1.66,0,0,1,1.26-.54h0a2.12,2.12,0,0,1,1.09.37,1.39,1.39,0,0,1,.35,1.09A1.75,1.75,0,0,1,39.25,102.69Z" transform="translate(-2.99)" style="fill: rgb(238, 238, 238); stroke: rgb(18, 162, 249);"/><path id="Path_38-2" data-name="Path 38-2" class="cls-2" d="M52.13,89.52a5,5,0,0,0-5.06,4.85,2.08,2.08,0,0,0,0,.25,5.41,5.41,0,0,0,5.06,5.48h.18A5.08,5.08,0,0,0,57.37,95v0a4.44,4.44,0,0,0-1.44-3.64A5.34,5.34,0,0,0,52.13,89.52Zm0,7.29A2.21,2.21,0,0,1,50,94.62a2.35,2.35,0,0,1,2.17-2.2h0a2.76,2.76,0,0,1,1.63.74,2.32,2.32,0,0,1,.72,1.46C54.3,95.89,53.22,97,52.13,96.81Z" transform="translate(-2.99)" style="fill: rgb(238, 238, 238); stroke: rgb(18, 162, 249);"/><path id="Path_39-2" data-name="Path 39-2" class="cls-2" d="M51.76,102.72h0a3.91,3.91,0,0,0-4,3.84v.18h0a3.93,3.93,0,0,0,3.84,4H52a3.92,3.92,0,0,0,4-3.87v-.14A4,4,0,0,0,54.85,104,5.15,5.15,0,0,0,51.76,102.72Zm0,5.84h0a1.83,1.83,0,0,1,0-3.65h0a1.91,1.91,0,0,1,1.26.54,1.8,1.8,0,0,1,.09,2.54,1.77,1.77,0,0,1-1.35.56Z" transform="translate(-2.99)" style="fill: rgb(238, 238, 238); stroke: rgb(18, 162, 249);"/></g></g></svg>