<?xml version="1.0" encoding="UTF-8" standalone="no"?>
<svg
   xmlns:dc="http://purl.org/dc/elements/1.1/"
   xmlns:cc="http://creativecommons.org/ns#"
   xmlns:rdf="http://www.w3.org/1999/02/22-rdf-syntax-ns#"
   xmlns:svg="http://www.w3.org/2000/svg"
   xmlns="http://www.w3.org/2000/svg"
   version="1.1"
   viewBox="0 0 146.41 146.48"
   data-name="Layer 1"
   id="Layer_1">
  <metadata
     id="metadata22">
    <rdf:RDF>
      <cc:Work
         rdf:about="">
        <dc:format>image/svg+xml</dc:format>
        <dc:type
           rdf:resource="http://purl.org/dc/dcmitype/StillImage" />
        <dc:title>skinDetectionIcon</dc:title>
      </cc:Work>
    </rdf:RDF>
  </metadata>
  <defs
     id="defs4">
    <style
       id="style2">.cls-1{fill:#0b86ce;}.cls-2{fill:#fff;}</style>
  </defs>
  <title
     id="title6">skinDetectionIcon</title>
  <g
     transform="matrix(0.70425709,0,0,0.68748742,18.621377,19.86353)"
     data-name="noun Search 2179717"
     id="noun_Search_2179717">
    <path
       style="fill:#ffffff"
       transform="translate(-2.99)"
       d="M 75.81,0 A 72.82,72.82 0 1 1 3,72.82 72.82,72.82 0 0 1 75.81,0 Z"
       class="cls-1"
       data-name="Path 40-2"
       id="Path_40-2" />
    <path
       style="fill:#12a2f9;fill-opacity:1;stroke:#12a2f9;stroke-opacity:1"
       transform="translate(-2.99)"
       d="m 143.94,145.41 c -2.34,-1.88 -27.9,-26.63 -27.9,-26.63 a 61.07,61.07 0 1 1 4.94,-4.93 c 0,0 26.87,23.15 28.17,28.15 1.3,5 -2.87,5.28 -5.21,3.41 z m -68.42,-126 a 53.93,53.93 0 1 0 53.92,53.93 v 0 A 53.92,53.92 0 0 0 75.52,19.39 Z"
       class="cls-2"
       data-name="Path 31-2"
       id="Path_31-2" />
    <path
       style="fill:#12a2f9;fill-opacity:1"
       transform="translate(-2.99)"
       d="m 120.83,80.87 a 3.64,3.64 0 0 1 -3.26,0.91 11,11 0 0 1 -3.5,-1.28 8.5,8.5 0 0 0 -9.6,1.11 11.13,11.13 0 0 1 -3.07,2 1.63,1.63 0 0 1 -1.75,0 19.1,19.1 0 0 1 -3.08,-2.19 8.94,8.94 0 0 0 -6.85,-1.2 9.48,9.48 0 0 1 0.17,-2.22 c 0.54,-2.19 1.26,-2.73 3.63,-2.73 h 28 a 2.38,2.38 0 0 0 0,-4.75 h -14.44 a 20.5,20.5 0 0 0 -0.72,-3.1 69.23,69.23 0 0 0 -6.52,-16.61 42.09,42.09 0 0 0 -5.06,-7.49 c -0.37,-0.36 -0.72,-0.54 -1.09,-0.36 -0.37,0.18 -0.37,0.73 -0.17,1.1 a 40.13,40.13 0 0 1 2,3.56 60.27,60.27 0 0 1 5.06,13.51 15.46,15.46 0 0 1 -0.17,8.76 c -0.18,0.19 -0.18,0.37 -0.18,0.73 h -6.71 a 7.5,7.5 0 0 0 -8.15,6.75 v 0.2 a 23.07,23.07 0 0 0 1.26,10.51 25.67,25.67 0 0 0 1.45,3.1 9.75,9.75 0 0 1 0.91,2 14.36,14.36 0 0 1 -2.36,15.05 11.43,11.43 0 0 1 -7.24,2.91 h -0.17 a 2.51,2.51 0 0 0 -1.09,0.19 h -2 a 3.77,3.77 0 0 0 -1.45,-0.19 4.54,4.54 0 0 0 -1.46,-0.18 10.67,10.67 0 0 1 -8.5,-9.74 14.34,14.34 0 0 1 1.63,-8.76 l 0.37,-0.74 a 23.56,23.56 0 0 0 2.34,-5.66 19.23,19.23 0 0 0 0,-10.21 v -0.2 A 7.31,7.31 0 0 0 61.83,70.73 H 50.46 A 32.54,32.54 0 0 0 49.73,66.35 68.79,68.79 0 0 0 43.22,49.74 43.1,43.1 0 0 0 38.16,42.26 c -0.37,-0.37 -0.74,-0.54 -1.09,-0.37 -0.35,0.17 -0.36,0.73 -0.19,1.1 a 34,34 0 0 1 2,3.65 60.79,60.79 0 0 1 5.12,13.54 16.58,16.58 0 0 1 0.53,4.38 17.65,17.65 0 0 1 -0.71,4.38 c -0.2,0.73 -0.37,1.28 -0.54,2 H 31.82 a 2.37,2.37 0 1 0 0,4.73 h 30 a 3,3 0 0 1 2.72,1.76 21.43,21.43 0 0 1 0.37,4.73 22.63,22.63 0 0 1 -4.35,-1.28 8.25,8.25 0 0 0 -9,1.1 c -0.91,0.74 -2,1.28 -3.08,2 a 2.21,2.21 0 0 1 -2.55,0 c -0.89,-0.56 -1.61,-1.1 -2.35,-1.65 a 6.27,6.27 0 0 0 -5.06,-1.64 9.16,9.16 0 0 0 -6.32,3.5 1.75,1.75 0 0 0 -0.2,2.4 c 0.72,0.73 1.61,0.36 2.35,-0.36 a 8.48,8.48 0 0 1 2.52,-2 3.77,3.77 0 0 1 4.35,0.37 22.36,22.36 0 0 0 3.51,2.4 4.36,4.36 0 0 0 4.89,-0.17 32.15,32.15 0 0 0 3.26,-2 5.41,5.41 0 0 1 6.69,-0.71 25.61,25.61 0 0 0 4.43,1.36 16.41,16.41 0 0 1 -1.75,4 l -0.37,0.72 a 19.71,19.71 0 0 0 -2,11.69 A 15.92,15.92 0 0 0 72,115.8 c 0.72,0.17 1.46,0.17 2,0.35 a 3.85,3.85 0 0 0 1.26,0.19 h 2.89 a 1,1 0 0 0 0.72,-0.19 h 0.54 A 15.82,15.82 0 0 0 89.35,112 18.31,18.31 0 0 0 92.86,91.55 L 91.78,89.36 C 91.43,88.44 90.89,87.6 90.52,86.8 90.15,86 90,85.23 89.8,84.43 a 4.35,4.35 0 0 1 5.07,0.37 17.5,17.5 0 0 0 2.89,2 5.25,5.25 0 0 0 5.43,0.19 20.74,20.74 0 0 0 3.8,-2.56 4.91,4.91 0 0 1 4.15,-0.91 9.19,9.19 0 0 1 2.18,0.74 13,13 0 0 0 5.78,1.45 5.63,5.63 0 0 0 3.8,-2 1.75,1.75 0 0 0 -0.18,-2.19 c -0.45,-1.19 -1.34,-1.3 -1.89,-0.65 z"
       class="cls-2"
       data-name="Path 32-2"
       id="Path_32-2" />
    <path
       style="fill:#12a2f9;fill-opacity:1;stroke:#12a2f9;stroke-opacity:1"
       transform="translate(-2.99)"
       d="m 61.09,42.07 a 127.2,127.2 0 0 1 10.13,27 27.07,27.07 0 0 1 0.9,8.59 34.7,34.7 0 0 1 -1.44,8.58 c -0.72,2.91 -2,5.64 -1.63,8.76 v 1.46 a 8.23,8.23 0 0 0 2.72,6.43 7.63,7.63 0 0 0 10.76,-1 8.2,8.2 0 0 0 0.82,-1.2 14,14 0 0 0 1.43,-8 A 51.53,51.53 0 0 0 82.8,81 133.82,133.82 0 0 0 70,47.78 111.55,111.55 0 0 0 59.82,32.62 C 59.1,31.71 58.38,31.54 57.66,32.08 a 1.75,1.75 0 0 0 -0.37,2.37 c 1.26,2.55 2.71,5.06 3.8,7.62 z"
       class="cls-2"
       data-name="Path 33-2"
       id="Path_33-2" />
    <path
       style="fill:#12a2f9;fill-opacity:1"
       transform="translate(-2.99)"
       d="m 113.8,93.93 v 0 a 5.34,5.34 0 0 0 -5.43,5.26 v 0.21 a 5.52,5.52 0 0 0 5.38,5.66 v 0 a 5.55,5.55 0 0 0 4,-1.65 5.66,5.66 0 0 0 1.63,-4 5.25,5.25 0 0 0 -1.63,-3.84 5.63,5.63 0 0 0 -3.95,-1.64 z m 2,7.41 a 2.72,2.72 0 0 1 -2,0.72 2.52,2.52 0 0 1 -2.55,-2.49 c 0,-0.08 0,-0.16 0,-0.24 a 2.69,2.69 0 0 1 2.63,-2.74 H 114 a 3.85,3.85 0 0 1 2,0.74 2.35,2.35 0 0 1 0.71,1.75 5.79,5.79 0 0 1 -0.91,2.26 z"
       class="cls-2"
       data-name="Path 34-2"
       id="Path_34-2" />
    <path
       style="fill:#12a2f9;fill-opacity:1"
       transform="translate(-2.99)"
       d="m 101.06,96.25 a 3.18,3.18 0 0 0 3.08,-3.1 3,3 0 0 0 -0.91,-2.19 2.8,2.8 0 0 0 -2.17,-0.91 3,3 0 0 0 -2.18,0.91 3.15,3.15 0 0 0 -1.08,2.19 3.34,3.34 0 0 0 3.26,3.1 z M 100.34,93 c 0,-0.19 0.18,-0.36 0.18,-0.56 a 0.69,0.69 0 0 1 0.54,-0.17 v 0 c 0.17,0 0.36,0.17 0.53,0.17 a 0.73,0.73 0 0 1 0.18,0.56 0.77,0.77 0 0 1 -0.72,0.72 v 0 A 0.77,0.77 0 0 1 100.33,93 Z"
       class="cls-2"
       data-name="Path 35-2"
       id="Path_35-2" />
    <path
       style="fill:#12a2f9;fill-opacity:1"
       transform="translate(-2.99)"
       d="m 101.44,102.55 v 0 a 6.54,6.54 0 0 0 -4.17,1.64 5.82,5.82 0 0 0 4.17,9.85 v 0 a 7,7 0 0 0 4.15,-1.63 5.72,5.72 0 0 0 1.63,-4 5.86,5.86 0 0 0 -5.78,-5.86 z m 1.75,7.67 a 2.52,2.52 0 0 1 -1.75,0.91 v 0 a 2.49,2.49 0 0 1 -2.55,-2.43 v -0.13 a 4,4 0 0 1 0.72,-1.92 2.46,2.46 0 0 1 2,-0.72 v 0 a 2.64,2.64 0 0 1 2.54,2.73 4,4 0 0 1 -0.91,1.49 z"
       class="cls-2"
       data-name="Path 36-2"
       id="Path_36-2" />
    <path
       style="fill:#12a2f9;fill-opacity:1"
       transform="translate(-2.99)"
       d="m 39.25,97.58 v 0 a 4.28,4.28 0 0 0 -2.54,0.91 3,3 0 0 0 -1,2.36 3.28,3.28 0 0 0 3.28,3.3 h 0.22 a 3.14,3.14 0 0 0 3.26,-3 1,1 0 0 0 0,-0.25 3.9,3.9 0 0 0 -0.91,-2.37 4.26,4.26 0 0 0 -2.31,-0.95 z m 0,5.11 v 0 a 1.63,1.63 0 0 1 -1.63,-1.63 v 0 a 2,2 0 0 1 0.37,-1.1 1.66,1.66 0 0 1 1.26,-0.54 v 0 a 2.12,2.12 0 0 1 1.09,0.37 1.39,1.39 0 0 1 0.35,1.09 1.75,1.75 0 0 1 -1.44,1.81 z"
       class="cls-2"
       data-name="Path 37-2"
       id="Path_37-2" />
    <path
       style="fill:#12a2f9;fill-opacity:1"
       transform="translate(-2.99)"
       d="m 52.13,89.52 a 5,5 0 0 0 -5.06,4.85 2.08,2.08 0 0 0 0,0.25 5.41,5.41 0 0 0 5.06,5.48 h 0.18 A 5.08,5.08 0 0 0 57.37,95 v 0 a 4.44,4.44 0 0 0 -1.44,-3.64 5.34,5.34 0 0 0 -3.8,-1.84 z m 0,7.29 A 2.21,2.21 0 0 1 50,94.62 a 2.35,2.35 0 0 1 2.17,-2.2 v 0 a 2.76,2.76 0 0 1 1.63,0.74 2.32,2.32 0 0 1 0.72,1.46 c -0.22,1.27 -1.3,2.38 -2.39,2.19 z"
       class="cls-2"
       data-name="Path 38-2"
       id="Path_38-2" />
    <path
       style="fill:#12a2f9;fill-opacity:1"
       transform="translate(-2.99)"
       d="m 51.76,102.72 v 0 a 3.91,3.91 0 0 0 -4,3.84 v 0.18 0 a 3.93,3.93 0 0 0 3.84,4 H 52 a 3.92,3.92 0 0 0 4,-3.87 v -0.14 A 4,4 0 0 0 54.85,104 5.15,5.15 0 0 0 51.76,102.72 Z m 0,5.84 v 0 a 1.83,1.83 0 0 1 0,-3.65 v 0 a 1.91,1.91 0 0 1 1.26,0.54 1.8,1.8 0 0 1 0.09,2.54 1.77,1.77 0 0 1 -1.35,0.56 z"
       class="cls-2"
       data-name="Path 39-2"
       id="Path_39-2" />
  </g>
</svg>
